<?xml version="1.0" encoding="iso-8859-1"?>
<!-- Generator: Adobe Illustrator 19.0.0, SVG Export Plug-In . SVG Version: 6.00 Build 0)  -->
<svg xmlns="http://www.w3.org/2000/svg" xmlns:xlink="http://www.w3.org/1999/xlink" version="1.1" id="Layer_1" x="0px" y="0px" viewBox="0 0 512 512" style="enable-background:new 0 0 512 512;" xml:space="preserve">
<g>
	<g>
		<rect y="332" width="512" height="60"/>
	</g>
</g>
<g>
	<g>
		<rect x="341" y="85" width="40" height="142"/>
	</g>
</g>
<g>
	<g>
		<rect x="131" y="197" width="40" height="30"/>
	</g>
</g>
<g>
	<g>
		<rect x="271" y="122.33" width="40" height="104.67"/>
	</g>
</g>
<g>
	<g>
		<path d="M0,10v292h512V10H0z M441,257H71v-30h30v-60h70v-37.333h70V92.333h70V55h100v172h30V257z"/>
	</g>
</g>
<g>
	<g>
		<rect x="201" y="159.67" width="40" height="67.33"/>
	</g>
</g>
<g>
	<g>
		<path d="M362,472c-16.542,0-30-13.458-30-30v-20H180v20c0,16.542-13.458,30-30,30H75v30h362v-30H362z"/>
	</g>
</g>
<g>
</g>
<g>
</g>
<g>
</g>
<g>
</g>
<g>
</g>
<g>
</g>
<g>
</g>
<g>
</g>
<g>
</g>
<g>
</g>
<g>
</g>
<g>
</g>
<g>
</g>
<g>
</g>
<g>
</g>
</svg>
