<?xml version="1.0" encoding="iso-8859-1"?>
<!-- Generator: Adobe Illustrator 19.0.0, SVG Export Plug-In . SVG Version: 6.00 Build 0)  -->
<svg xmlns="http://www.w3.org/2000/svg" xmlns:xlink="http://www.w3.org/1999/xlink" version="1.1" id="Layer_1" x="0px" y="0px" viewBox="0 0 512 512" style="enable-background:new 0 0 512 512;" xml:space="preserve">
<g>
	<g>
		<polygon points="442.213,157.803 296.606,12.197 275.394,33.41 399.787,157.803 112.213,157.803 236.606,33.41 215.394,12.197     69.787,157.803 0,157.803 0,217.803 512,217.803 512,157.803   "/>
	</g>
</g>
<g>
	<g>
		<path d="M20.03,247.803l20.406,179.084c4.582,40.206,41.231,72.916,81.697,72.916h267.734c40.466,0,77.115-32.71,81.697-72.916    l20.405-179.084H20.03z M166,425.189h-30V277.803h30V425.189z M271,425.189h-30V277.803h30V425.189z M376,425.189h-30V277.803h30    V425.189z"/>
	</g>
</g>
<g>
</g>
<g>
</g>
<g>
</g>
<g>
</g>
<g>
</g>
<g>
</g>
<g>
</g>
<g>
</g>
<g>
</g>
<g>
</g>
<g>
</g>
<g>
</g>
<g>
</g>
<g>
</g>
<g>
</g>
</svg>
