<?xml version="1.0" encoding="iso-8859-1"?>
<!-- Generator: Adobe Illustrator 19.0.0, SVG Export Plug-In . SVG Version: 6.00 Build 0)  -->
<svg xmlns="http://www.w3.org/2000/svg" xmlns:xlink="http://www.w3.org/1999/xlink" version="1.1" id="Layer_1" x="0px" y="0px" viewBox="0 0 512 512" style="enable-background:new 0 0 512 512;" xml:space="preserve">
<g>
	<g>
		<path d="M0,85v16.852l15.638,137.232C20.218,279.29,56.867,312,97.334,312h290.533l25.866-227H0z M116.866,252.5h-30v-108h30    V252.5z M221.866,252.5h-30v-108h30V252.5z M326.866,252.5h-30v-108h30V252.5z"/>
	</g>
</g>
<g>
	<g>
		<polygon points="453.612,0 414.643,342 73.736,342 73.736,372 441.418,372 480.388,30 512,30 512,0   "/>
	</g>
</g>
<g>
	<g>
		<path d="M388.03,402c-30.327,0-55,24.673-55,55c0,30.327,24.673,55,55,55c30.327,0,55-24.673,55-55    C443.03,426.673,418.357,402,388.03,402z M388.03,482c-13.785,0-25-11.215-25-25c0-13.785,11.215-25,25-25    c13.785,0,25,11.215,25,25C413.03,470.785,401.815,482,388.03,482z"/>
	</g>
</g>
<g>
	<g>
		<path d="M113.736,402c-30.327,0-55,24.673-55,55c0,30.327,24.673,55,55,55c30.327,0,55-24.673,55-55    C168.736,426.673,144.063,402,113.736,402z M113.736,482c-13.785,0-25-11.215-25-25c0-13.785,11.215-25,25-25    c13.785,0,25,11.215,25,25C138.736,470.785,127.521,482,113.736,482z"/>
	</g>
</g>
<g>
</g>
<g>
</g>
<g>
</g>
<g>
</g>
<g>
</g>
<g>
</g>
<g>
</g>
<g>
</g>
<g>
</g>
<g>
</g>
<g>
</g>
<g>
</g>
<g>
</g>
<g>
</g>
<g>
</g>
</svg>
