<?xml version="1.0" encoding="iso-8859-1"?>
<!-- Generator: Adobe Illustrator 19.0.0, SVG Export Plug-In . SVG Version: 6.00 Build 0)  -->
<svg xmlns="http://www.w3.org/2000/svg" xmlns:xlink="http://www.w3.org/1999/xlink" version="1.1" id="Layer_1" x="0px" y="0px" viewBox="0 0 512 512" style="enable-background:new 0 0 512 512;" xml:space="preserve">
<g>
	<g>
		<rect x="196" y="271" width="30" height="211"/>
	</g>
</g>
<g>
	<g>
		<rect x="452" y="271" width="60" height="211"/>
	</g>
</g>
<g>
	<g>
		<polygon points="98,271 98,364 68,364 68,271 0,271 0,482 166,482 166,271   "/>
	</g>
</g>
<g>
	<g>
		<polygon points="354,271 354,364 324,364 324,271 256,271 256,482 422,482 422,271   "/>
	</g>
</g>
<g>
	<g>
		<rect x="324" y="30" width="60" height="211"/>
	</g>
</g>
<g>
	<g>
		<polygon points="226,30 226,123 196,123 196,30 128,30 128,241 294,241 294,30   "/>
	</g>
</g>
<g>
</g>
<g>
</g>
<g>
</g>
<g>
</g>
<g>
</g>
<g>
</g>
<g>
</g>
<g>
</g>
<g>
</g>
<g>
</g>
<g>
</g>
<g>
</g>
<g>
</g>
<g>
</g>
<g>
</g>
</svg>
