<?xml version="1.0" encoding="iso-8859-1"?>
<!-- Generator: Adobe Illustrator 19.0.0, SVG Export Plug-In . SVG Version: 6.00 Build 0)  -->
<svg xmlns="http://www.w3.org/2000/svg" xmlns:xlink="http://www.w3.org/1999/xlink" version="1.1" id="Layer_1" x="0px" y="0px" viewBox="0 0 512 512" style="enable-background:new 0 0 512 512;" xml:space="preserve">
<g>
	<g>
		<path d="M376,362c-16.542,0-30,13.458-30,30s13.458,30,30,30s30-13.458,30-30S392.542,362,376,362z"/>
	</g>
</g>
<g>
	<g>
		<path d="M271,0v512h210V0H271z M376,452c-33.084,0-60-26.916-60-60s26.916-60,60-60s60,26.916,60,60S409.084,452,376,452z     M436,302H316V60h120V302z"/>
	</g>
</g>
<g>
	<g>
		<rect x="346" y="150" width="60" height="122"/>
	</g>
</g>
<g>
	<g>
		<rect x="346" y="90" width="60" height="30"/>
	</g>
</g>
<g>
	<g>
		<rect x="106" y="90" width="60" height="30"/>
	</g>
</g>
<g>
	<g>
		<rect x="106" y="150" width="60" height="122"/>
	</g>
</g>
<g>
	<g>
		<path d="M136,362c-16.542,0-30,13.458-30,30s13.458,30,30,30s30-13.458,30-30S152.542,362,136,362z"/>
	</g>
</g>
<g>
	<g>
		<path d="M31,0v512h210V0H31z M136,452c-33.084,0-60-26.916-60-60s26.916-60,60-60s60,26.916,60,60S169.084,452,136,452z M196,302    H76V60h120V302z"/>
	</g>
</g>
<g>
</g>
<g>
</g>
<g>
</g>
<g>
</g>
<g>
</g>
<g>
</g>
<g>
</g>
<g>
</g>
<g>
</g>
<g>
</g>
<g>
</g>
<g>
</g>
<g>
</g>
<g>
</g>
<g>
</g>
</svg>
