<?xml version="1.0" encoding="iso-8859-1"?>
<!-- Generator: Adobe Illustrator 19.0.0, SVG Export Plug-In . SVG Version: 6.00 Build 0)  -->
<svg xmlns="http://www.w3.org/2000/svg" xmlns:xlink="http://www.w3.org/1999/xlink" version="1.1" id="Layer_1" x="0px" y="0px" viewBox="0 0 512 512" style="enable-background:new 0 0 512 512;" xml:space="preserve">
<g>
	<g>
		<path d="M256.25,135c-11.58,0-21,9.421-21,21s9.42,21,21,21s21-9.421,21-21S267.83,135,256.25,135z"/>
	</g>
</g>
<g>
	<g>
		<path d="M256.25,75c-44.664,0-81,36.337-81,81c0,19.587,7.085,38.491,19.951,53.232l61.049,70.441l61.015-70.402    c12.9-14.78,19.985-33.685,19.985-53.271C337.25,111.337,300.914,75,256.25,75z M256.25,207c-28.122,0-51-22.879-51-51    c0-28.121,22.878-51,51-51s51,22.879,51,51C307.25,184.121,284.372,207,256.25,207z"/>
	</g>
</g>
<g>
	<g>
		<path d="M67.75,0v362h376.5V0H67.75z M339.901,228.959L256.25,321l-83.686-92.08c-17.602-20.168-27.314-46.078-27.314-72.92    c0-61.206,49.794-111,111-111s111,49.794,111,111C367.25,182.842,357.537,208.752,339.901,228.959z"/>
	</g>
</g>
<g>
	<g>
		<path d="M67.75,392v120h376.5V392H67.75z M286,467h-60v-30h60V467z"/>
	</g>
</g>
<g>
</g>
<g>
</g>
<g>
</g>
<g>
</g>
<g>
</g>
<g>
</g>
<g>
</g>
<g>
</g>
<g>
</g>
<g>
</g>
<g>
</g>
<g>
</g>
<g>
</g>
<g>
</g>
<g>
</g>
</svg>
