<?xml version="1.0" encoding="iso-8859-1"?>
<!-- Generator: Adobe Illustrator 19.0.0, SVG Export Plug-In . SVG Version: 6.00 Build 0)  -->
<svg xmlns="http://www.w3.org/2000/svg" xmlns:xlink="http://www.w3.org/1999/xlink" version="1.1" id="Layer_1" x="0px" y="0px" viewBox="0 0 512 512" style="enable-background:new 0 0 512 512;" xml:space="preserve">
<g>
	<g>
		<rect x="211" y="189.87" width="90" height="72"/>
	</g>
</g>
<g>
	<g>
		<path d="M256,99.871c-16.542,0-30,13.458-30,30v30h60v-30C286,113.329,272.542,99.871,256,99.871z"/>
	</g>
</g>
<g>
	<g>
		<path d="M437,25c0,41.355,33.645,75,75,75V25H437z"/>
	</g>
</g>
<g>
	<g>
		<path d="M0,25v75c41.355,0,75-33.645,75-75H0z"/>
	</g>
</g>
<g>
	<g>
		<rect y="442" width="512" height="45"/>
	</g>
</g>
<g>
	<g>
		<path d="M407,25H105c0,57.897-47.103,105-105,105v102c57.897,0,105,47.103,105,105h302c0-57.897,47.103-105,105-105V130    C454.103,130,407,82.897,407,25z M102.5,196h-30v-30h30V196z M331,291.871H181v-132h15v-30c0-33.084,26.916-60,60-60    s60,26.916,60,60v30h15V291.871z M439.5,196h-30v-30h30V196z"/>
	</g>
</g>
<g>
	<g>
		<path d="M437,337h75v-75C470.645,262,437,295.645,437,337z"/>
	</g>
</g>
<g>
	<g>
		<rect y="367" width="512" height="45"/>
	</g>
</g>
<g>
	<g>
		<path d="M0,262v75h75C75,295.645,41.355,262,0,262z"/>
	</g>
</g>
<g>
</g>
<g>
</g>
<g>
</g>
<g>
</g>
<g>
</g>
<g>
</g>
<g>
</g>
<g>
</g>
<g>
</g>
<g>
</g>
<g>
</g>
<g>
</g>
<g>
</g>
<g>
</g>
<g>
</g>
</svg>
