<?xml version="1.0" encoding="iso-8859-1"?>
<!-- Generator: Adobe Illustrator 19.0.0, SVG Export Plug-In . SVG Version: 6.00 Build 0)  -->
<svg xmlns="http://www.w3.org/2000/svg" xmlns:xlink="http://www.w3.org/1999/xlink" version="1.1" id="Layer_1" x="0px" y="0px" viewBox="0 0 512 512" style="enable-background:new 0 0 512 512;" xml:space="preserve">
<g>
	<g>
		<path d="M120.5,361.333c-49.236,0-93.026-23.767-120.5-60.43v0.264c0,66.444,54.056,120.5,120.5,120.5S241,367.611,241,301.167    v-0.264C213.526,337.566,169.736,361.333,120.5,361.333z"/>
	</g>
</g>
<g>
	<g>
		<path d="M120.5,451.667c-49.236,0-93.026-23.767-120.5-60.43v0.263C0,457.944,54.056,512,120.5,512S241,457.944,241,391.5v-0.263    C213.526,427.9,169.736,451.667,120.5,451.667z"/>
	</g>
</g>
<g>
	<g>
		<path d="M120.5,271C71.264,271,27.474,247.233,0,210.57v0.263c0,66.444,54.056,120.5,120.5,120.5S241,277.277,241,210.833v-0.263    C213.526,247.233,169.736,271,120.5,271z"/>
	</g>
</g>
<g>
	<g>
		<path d="M120.5,0C54.056,0,0,54.056,0,120.5S54.056,241,120.5,241S241,186.944,241,120.5S186.944,0,120.5,0z M120.5,181    C87.14,181,60,153.859,60,120.5S87.14,60,120.5,60S181,87.141,181,120.5S153.86,181,120.5,181z"/>
	</g>
</g>
<g>
	<g>
		<path d="M120.5,90C103.682,90,90,103.683,90,120.5s13.682,30.5,30.5,30.5s30.5-13.683,30.5-30.5S137.318,90,120.5,90z"/>
	</g>
</g>
<g>
	<g>
		<path d="M391.5,271c-49.236,0-93.026-23.767-120.5-60.43v0.263c0,66.444,54.056,120.5,120.5,120.5S512,277.277,512,210.833v-0.263    C484.526,247.233,440.736,271,391.5,271z"/>
	</g>
</g>
<g>
	<g>
		<path d="M391.5,361.333c-49.236,0-93.026-23.767-120.5-60.43v0.264c0,66.444,54.056,120.5,120.5,120.5S512,367.611,512,301.167    v-0.264C484.526,337.566,440.736,361.333,391.5,361.333z"/>
	</g>
</g>
<g>
	<g>
		<path d="M391.5,0C325.056,0,271,54.056,271,120.5S325.056,241,391.5,241S512,186.944,512,120.5S457.944,0,391.5,0z M391.5,181    c-33.36,0-60.5-27.141-60.5-60.5S358.14,60,391.5,60S452,87.141,452,120.5S424.86,181,391.5,181z"/>
	</g>
</g>
<g>
	<g>
		<path d="M391.5,90c-16.818,0-30.5,13.683-30.5,30.5s13.682,30.5,30.5,30.5s30.5-13.683,30.5-30.5S408.318,90,391.5,90z"/>
	</g>
</g>
<g>
	<g>
		<path d="M391.5,451.667c-49.236,0-93.026-23.767-120.5-60.43v0.263c0,66.444,54.056,120.5,120.5,120.5S512,457.944,512,391.5    v-0.263C484.526,427.9,440.736,451.667,391.5,451.667z"/>
	</g>
</g>
<g>
</g>
<g>
</g>
<g>
</g>
<g>
</g>
<g>
</g>
<g>
</g>
<g>
</g>
<g>
</g>
<g>
</g>
<g>
</g>
<g>
</g>
<g>
</g>
<g>
</g>
<g>
</g>
<g>
</g>
</svg>
