<?xml version="1.0" encoding="iso-8859-1"?>
<!-- Generator: Adobe Illustrator 19.0.0, SVG Export Plug-In . SVG Version: 6.00 Build 0)  -->
<svg xmlns="http://www.w3.org/2000/svg" xmlns:xlink="http://www.w3.org/1999/xlink" version="1.1" id="Layer_1" x="0px" y="0px" viewBox="0 0 512 512" style="enable-background:new 0 0 512 512;" xml:space="preserve">
<g>
	<g>
		<path d="M423.294,0L370,30L313,0l-57,30L199,0l-57,30L88.706,0H69v512h19.706L142,482l57,30l57-30l57,30l57-30l53.294,30H443V0    H423.294z M142,166.049h138v30H142V166.049z M142,226.049h138v30H142V226.049z M142,286.049h138v30H142V286.049z M370,406.049H142    v-30h228V406.049z M370,316.049h-30v-30h30V316.049z M370,256.049h-30v-30h30V256.049z M370,196.049h-30v-30h30V196.049z     M370,136.049H142v-30h228V136.049z"/>
	</g>
</g>
<g>
</g>
<g>
</g>
<g>
</g>
<g>
</g>
<g>
</g>
<g>
</g>
<g>
</g>
<g>
</g>
<g>
</g>
<g>
</g>
<g>
</g>
<g>
</g>
<g>
</g>
<g>
</g>
<g>
</g>
</svg>
