<?xml version="1.0" encoding="iso-8859-1"?>
<!-- Generator: Adobe Illustrator 19.0.0, SVG Export Plug-In . SVG Version: 6.00 Build 0)  -->
<svg xmlns="http://www.w3.org/2000/svg" xmlns:xlink="http://www.w3.org/1999/xlink" version="1.1" id="Layer_1" x="0px" y="0px" viewBox="0 0 512 512" style="enable-background:new 0 0 512 512;" xml:space="preserve">
<g>
	<g>
		<rect x="271" y="272" width="30" height="30"/>
	</g>
</g>
<g>
	<g>
		<rect x="271" y="332" width="30" height="30"/>
	</g>
</g>
<g>
	<g>
		<rect x="211" y="272" width="30" height="30"/>
	</g>
</g>
<g>
	<g>
		<rect x="271" y="392" width="30" height="30"/>
	</g>
</g>
<g>
	<g>
		<rect x="151" y="392" width="30" height="30"/>
	</g>
</g>
<g>
	<g>
		<rect x="211" y="392" width="30" height="30"/>
	</g>
</g>
<g>
	<g>
		<rect x="211" y="332" width="30" height="30"/>
	</g>
</g>
<g>
	<g>
		<rect x="151" y="272" width="30" height="30"/>
	</g>
</g>
<g>
	<g>
		<rect x="151" y="75" width="210" height="92"/>
	</g>
</g>
<g>
	<g>
		<rect x="331" y="272" width="30" height="30"/>
	</g>
</g>
<g>
	<g>
		<rect x="151" y="332" width="30" height="30"/>
	</g>
</g>
<g>
	<g>
		<rect x="331" y="332" width="30" height="90"/>
	</g>
</g>
<g>
	<g>
		<path d="M61,0v437c0,41.355,33.645,75,75,75h240c41.355,0,75-33.645,75-75V0H61z M391,452H121V242h270V452z M391,197H121V45h270    V197z"/>
	</g>
</g>
<g>
</g>
<g>
</g>
<g>
</g>
<g>
</g>
<g>
</g>
<g>
</g>
<g>
</g>
<g>
</g>
<g>
</g>
<g>
</g>
<g>
</g>
<g>
</g>
<g>
</g>
<g>
</g>
<g>
</g>
</svg>
