<?xml version="1.0" encoding="iso-8859-1"?>
<!-- Generator: Adobe Illustrator 19.0.0, SVG Export Plug-In . SVG Version: 6.00 Build 0)  -->
<svg xmlns="http://www.w3.org/2000/svg" xmlns:xlink="http://www.w3.org/1999/xlink" version="1.1" id="Layer_1" x="0px" y="0px" viewBox="0 0 512 512" style="enable-background:new 0 0 512 512;" xml:space="preserve">
<g>
	<g>
		<polygon points="316,260 316,401.527 256,361.527 196,401.527 196,260 55,260 55,512 457,512 457,260   "/>
	</g>
</g>
<g>
	<g>
		<path d="M387,0c-18.945,0-36.691,7.455-49.967,20.991l-33.854,34.505C311.198,65.7,316,78.546,316,92.5V110h128.396    C452.328,98.652,457,84.865,457,70C457,31.401,425.598,0,387,0z"/>
	</g>
</g>
<g>
	<g>
		<path d="M174.969,20.993C161.691,7.455,143.945,0,125,0C86.402,0,55,31.401,55,70c0,14.865,4.672,28.652,12.604,40H196V92.5    c0-13.954,4.802-26.8,12.822-37.003L174.969,20.993z"/>
	</g>
</g>
<g>
	<g>
		<rect x="25" y="140" width="171" height="90"/>
	</g>
</g>
<g>
	<g>
		<rect x="316" y="140" width="171" height="90"/>
	</g>
</g>
<g>
	<g>
		<polygon points="226,140 226,345.473 256,325.473 286,345.473 286,140   "/>
	</g>
</g>
<g>
	<g>
		<path d="M256,62.5c-16.542,0-30,13.458-30,30V110h60V92.5C286,75.958,272.542,62.5,256,62.5z"/>
	</g>
</g>
<g>
</g>
<g>
</g>
<g>
</g>
<g>
</g>
<g>
</g>
<g>
</g>
<g>
</g>
<g>
</g>
<g>
</g>
<g>
</g>
<g>
</g>
<g>
</g>
<g>
</g>
<g>
</g>
<g>
</g>
</svg>
