<?xml version="1.0" encoding="iso-8859-1"?>
<!-- Generator: Adobe Illustrator 19.0.0, SVG Export Plug-In . SVG Version: 6.00 Build 0)  -->
<svg xmlns="http://www.w3.org/2000/svg" xmlns:xlink="http://www.w3.org/1999/xlink" version="1.1" id="Layer_1" x="0px" y="0px" viewBox="0 0 512 512" style="enable-background:new 0 0 512 512;" xml:space="preserve">
<g>
	<g>
		<path d="M0,50.5v411h372v-140h140v-271H0z M271,110.5h68v30h-68V110.5z M60,220.5h30v71H60V220.5z M140,401.5H60v-80h30v50h50    V401.5z M140,140.5H90v50H60v-80h80V140.5z M241,401.5h-71v-30h71V401.5z M241,140.5h-71v-30h71V140.5z M342,401.5h-71v-30h71    V401.5z M452,291.5h-30v-71h30V291.5z M452,190.5h-30v-50h-50v-30h80V190.5z"/>
	</g>
</g>
<g>
	<g>
		<polygon points="402,351.5 402,461.5 512,351.5   "/>
	</g>
</g>
<g>
</g>
<g>
</g>
<g>
</g>
<g>
</g>
<g>
</g>
<g>
</g>
<g>
</g>
<g>
</g>
<g>
</g>
<g>
</g>
<g>
</g>
<g>
</g>
<g>
</g>
<g>
</g>
<g>
</g>
</svg>
