<?xml version="1.0" encoding="iso-8859-1"?>
<!-- Generator: Adobe Illustrator 19.0.0, SVG Export Plug-In . SVG Version: 6.00 Build 0)  -->
<svg xmlns="http://www.w3.org/2000/svg" xmlns:xlink="http://www.w3.org/1999/xlink" version="1.1" id="Layer_1" x="0px" y="0px" viewBox="0 0 512 512" style="enable-background:new 0 0 512 512;" xml:space="preserve">
<g>
	<g>
		<polygon points="334.766,166.553 280.34,158.644 256,109.326 231.66,158.644 177.234,166.553 216.617,204.941 207.32,259.147     256,233.554 304.68,259.147 295.383,204.941   "/>
	</g>
</g>
<g>
	<g>
		<path d="M67.75,0v362h376.5V0H67.75z M344.523,313.988L256,267.448l-88.523,46.54l16.906-98.573l-71.617-69.81l98.973-14.381    L256,41.539l44.262,89.685l98.973,14.381l-71.617,69.81L344.523,313.988z"/>
	</g>
</g>
<g>
	<g>
		<path d="M67.75,392v120h376.5V392H67.75z M286,467h-60v-30h60V467z"/>
	</g>
</g>
<g>
</g>
<g>
</g>
<g>
</g>
<g>
</g>
<g>
</g>
<g>
</g>
<g>
</g>
<g>
</g>
<g>
</g>
<g>
</g>
<g>
</g>
<g>
</g>
<g>
</g>
<g>
</g>
<g>
</g>
</svg>
