<?xml version="1.0" encoding="iso-8859-1"?>
<!-- Generator: Adobe Illustrator 19.0.0, SVG Export Plug-In . SVG Version: 6.00 Build 0)  -->
<svg xmlns="http://www.w3.org/2000/svg" xmlns:xlink="http://www.w3.org/1999/xlink" version="1.1" id="Layer_1" x="0px" y="0px" viewBox="0 0 512 512" style="enable-background:new 0 0 512 512;" xml:space="preserve">
<g>
	<g>
		<polygon points="316.25,366.492 256,416.492 195.75,366.492 20.414,512 491.586,512   "/>
	</g>
</g>
<g>
	<g>
		<polygon points="339.738,347 512,489.956 512,204.044   "/>
	</g>
</g>
<g>
	<g>
		<polygon points="0,204.044 0,489.956 172.262,347   "/>
	</g>
</g>
<g>
	<g>
		<polygon points="452,182 452,214.852 491.586,182   "/>
	</g>
</g>
<g>
	<g>
		<polygon points="20.414,182 60,214.852 60,182   "/>
	</g>
</g>
<g>
	<g>
		<path d="M90,0v239.748l166,137.759l166-137.759V0H90z M362,240H150v-30h212V240z M362,180H150v-30h212V180z M362,120H150V90h212    V120z"/>
	</g>
</g>
<g>
</g>
<g>
</g>
<g>
</g>
<g>
</g>
<g>
</g>
<g>
</g>
<g>
</g>
<g>
</g>
<g>
</g>
<g>
</g>
<g>
</g>
<g>
</g>
<g>
</g>
<g>
</g>
<g>
</g>
</svg>
