<?xml version="1.0" encoding="iso-8859-1"?>
<!-- Generator: Adobe Illustrator 19.0.0, SVG Export Plug-In . SVG Version: 6.00 Build 0)  -->
<svg xmlns="http://www.w3.org/2000/svg" xmlns:xlink="http://www.w3.org/1999/xlink" version="1.1" id="Layer_1" x="0px" y="0px" viewBox="0 0 512 512" style="enable-background:new 0 0 512 512;" xml:space="preserve">
<g>
	<g>
		<path d="M172.352,442c7.109,39.736,41.899,70,83.648,70c41.749,0,76.539-30.264,83.648-70H172.352z"/>
	</g>
</g>
<g>
	<g>
		<path d="M429.783,184.37C420.025,101.373,353.018,37.635,271,30.647V0h-30v30.647c-82.018,6.987-149.025,70.726-158.785,153.735    L66.153,322h379.693L429.783,184.37z M304.886,186.121h-30v-30h30V186.121z M354.886,236.121h-30v-30h30V236.121z"/>
	</g>
</g>
<g>
	<g>
		<polygon points="452.849,382 449.348,352 62.652,352 59.15,382 24,382 24,412 488,412 488,382   "/>
	</g>
</g>
<g>
</g>
<g>
</g>
<g>
</g>
<g>
</g>
<g>
</g>
<g>
</g>
<g>
</g>
<g>
</g>
<g>
</g>
<g>
</g>
<g>
</g>
<g>
</g>
<g>
</g>
<g>
</g>
<g>
</g>
</svg>
