<?xml version="1.0" encoding="iso-8859-1"?>
<!-- Generator: Adobe Illustrator 19.0.0, SVG Export Plug-In . SVG Version: 6.00 Build 0)  -->
<svg xmlns="http://www.w3.org/2000/svg" xmlns:xlink="http://www.w3.org/1999/xlink" version="1.1" id="Layer_1" x="0px" y="0px" viewBox="0 0 512 512" style="enable-background:new 0 0 512 512;" xml:space="preserve">
<g>
	<g>
		<path d="M256,120c-8.271,0-15,6.729-15,15s6.729,15,15,15s15-6.729,15-15S264.271,120,256,120z"/>
	</g>
</g>
<g>
	<g>
		<path d="M322.213,30H271v62.58c17.459,6.192,30,22.865,30,42.42c0,24.813-20.187,45-45,45s-45-20.187-45-45    c0-19.555,12.541-36.228,30-42.42V30h-51.213L91,128.787V512h330V128.787L322.213,30z M256,467c-52.107,0-94.5-42.437-94.5-94.599    l0.023-100.205l45.505,10.087L256,220.963l48.972,61.32l45.505-10.087l0.023,100.202C350.5,424.563,308.107,467,256,467z"/>
	</g>
</g>
<g>
	<g>
		<path d="M320.486,309.572l-27.283,6.048L256,269.037l-37.203,46.583l-27.283-6.048l-0.014,62.833    C191.5,408.021,220.435,437,256,437s64.5-28.979,64.5-64.599L320.486,309.572z"/>
	</g>
</g>
<g>
	<g>
		<rect x="241" width="30" height="30"/>
	</g>
</g>
<g>
</g>
<g>
</g>
<g>
</g>
<g>
</g>
<g>
</g>
<g>
</g>
<g>
</g>
<g>
</g>
<g>
</g>
<g>
</g>
<g>
</g>
<g>
</g>
<g>
</g>
<g>
</g>
<g>
</g>
</svg>
