<?xml version="1.0" encoding="iso-8859-1"?>
<!-- Generator: Adobe Illustrator 19.0.0, SVG Export Plug-In . SVG Version: 6.00 Build 0)  -->
<svg xmlns="http://www.w3.org/2000/svg" xmlns:xlink="http://www.w3.org/1999/xlink" version="1.1" id="Layer_1" x="0px" y="0px" viewBox="0 0 512 512" style="enable-background:new 0 0 512 512;" xml:space="preserve">
<g>
	<g>
		<path d="M85,0v512h342V0H85z M256,462c-66.72,0-121-54.28-121-121s54.28-121,121-121s121,54.28,121,121S322.72,462,256,462z     M377,170H135V50h242V170z"/>
	</g>
</g>
<g>
	<g>
		<rect x="165" y="80" width="182" height="60"/>
	</g>
</g>
<g>
	<g>
		<path d="M256,310c-17.093,0-31,13.907-31,31c0,17.093,13.907,31,31,31s31-13.907,31-31C287,323.907,273.093,310,256,310z"/>
	</g>
</g>
<g>
	<g>
		<path d="M256,250c-50.178,0-91,40.822-91,91c0,50.178,40.822,91,91,91c50.178,0,91-40.822,91-91C347,290.822,306.178,250,256,250z     M256,402c-33.636,0-61-27.364-61-61s27.364-61,61-61s61,27.364,61,61S289.636,402,256,402z"/>
	</g>
</g>
<g>
</g>
<g>
</g>
<g>
</g>
<g>
</g>
<g>
</g>
<g>
</g>
<g>
</g>
<g>
</g>
<g>
</g>
<g>
</g>
<g>
</g>
<g>
</g>
<g>
</g>
<g>
</g>
<g>
</g>
</svg>
