<?xml version="1.0" encoding="iso-8859-1"?>
<!-- Generator: Adobe Illustrator 19.0.0, SVG Export Plug-In . SVG Version: 6.00 Build 0)  -->
<svg xmlns="http://www.w3.org/2000/svg" xmlns:xlink="http://www.w3.org/1999/xlink" version="1.1" id="Layer_1" x="0px" y="0px" viewBox="0 0 512 512" style="enable-background:new 0 0 512 512;" xml:space="preserve">
<g>
	<g>
		<polygon points="314.938,0 271,0 271,45 342.971,45   "/>
	</g>
</g>
<g>
	<g>
		<polygon points="197.063,0 169.029,45 241,45 241,0   "/>
	</g>
</g>
<g>
	<g>
		<path d="M164.642,75l11.996,36.295c1.409-0.099,2.824-0.167,4.249-0.167c14.318,0,27.921,5.167,38.55,14.059    C231.477,123.069,243.713,122,256,122s24.523,1.069,36.562,3.187c10.629-8.893,24.233-14.059,38.551-14.059    c1.425,0,2.84,0.068,4.249,0.167L347.358,75H164.642z"/>
	</g>
</g>
<g>
	<g>
		<path d="M358.271,183.839c7.002-15.016,0.517-32.891-14.499-39.893c-15.017-7.002-32.866-0.506-39.868,14.511    C288.651,154.256,272.59,152,256,152c-16.59,0-32.651,2.256-47.905,6.457c-7.002-15.016-24.851-21.513-39.868-14.511    c-15.016,7.002-21.513,24.852-14.511,39.868C106.752,216.296,76,270.575,76,332c0,99.411,80.589,180,180,180s180-80.589,180-180    C436,270.575,405.236,216.321,358.271,183.839z M256,452c-66.168,0-120-53.832-120-120s53.832-120,120-120s120,53.832,120,120    S322.168,452,256,452z"/>
	</g>
</g>
<g>
</g>
<g>
</g>
<g>
</g>
<g>
</g>
<g>
</g>
<g>
</g>
<g>
</g>
<g>
</g>
<g>
</g>
<g>
</g>
<g>
</g>
<g>
</g>
<g>
</g>
<g>
</g>
<g>
</g>
</svg>
