<?xml version="1.0" encoding="iso-8859-1"?>
<!-- Generator: Adobe Illustrator 19.0.0, SVG Export Plug-In . SVG Version: 6.00 Build 0)  -->
<svg xmlns="http://www.w3.org/2000/svg" xmlns:xlink="http://www.w3.org/1999/xlink" version="1.1" id="Layer_1" x="0px" y="0px" viewBox="0 0 512 512" style="enable-background:new 0 0 512 512;" xml:space="preserve">
<g>
	<g>
		<rect x="112.5" y="444.5" width="287" height="60"/>
	</g>
</g>
<g>
	<g>
		<polygon points="429.5,19.472 429.5,147.5 512,147.5 512,74.472   "/>
	</g>
</g>
<g>
	<g>
		<rect x="429.5" y="177.5" width="82.5" height="60"/>
	</g>
</g>
<g>
	<g>
		<rect y="177.5" width="82.5" height="60"/>
	</g>
</g>
<g>
	<g>
		<polygon points="0,74.472 0,147.5 82.5,147.5 82.5,19.472   "/>
	</g>
</g>
<g>
	<g>
		<path d="M201,7.5c0,30.327,24.673,55,55,55c30.327,0,55-24.673,55-55H201z"/>
	</g>
</g>
<g>
	<g>
		<path d="M341,7.5c0,46.869-38.131,85-85,85s-85-38.131-85-85h-58.5v407h287V7.5H341z"/>
	</g>
</g>
<g>
</g>
<g>
</g>
<g>
</g>
<g>
</g>
<g>
</g>
<g>
</g>
<g>
</g>
<g>
</g>
<g>
</g>
<g>
</g>
<g>
</g>
<g>
</g>
<g>
</g>
<g>
</g>
<g>
</g>
</svg>
