<?xml version="1.0" encoding="iso-8859-1"?>
<!-- Generator: Adobe Illustrator 19.0.0, SVG Export Plug-In . SVG Version: 6.00 Build 0)  -->
<svg xmlns="http://www.w3.org/2000/svg" xmlns:xlink="http://www.w3.org/1999/xlink" version="1.1" id="Layer_1" x="0px" y="0px" viewBox="0 0 512 512" style="enable-background:new 0 0 512 512;" xml:space="preserve">
<g>
	<g>
		<path d="M125.5,452V267.897c-4.428-5.022-8.232-10.59-11.269-16.534c-3.832-7.5-6.445-15.628-7.755-23.973    c-16.266-3.191-27.551-8.804-37.912-13.962C54.094,206.223,41.597,200,15,200H0v312h154.906    C137.199,498.186,125.5,476.214,125.5,452z"/>
	</g>
</g>
<g>
	<g>
		<path d="M226.814,90H44.187l-31.306,50.09C7.956,147.97,3.853,159.246,1.678,170H15c33.653,0,51.335,8.805,66.936,16.572    c8.206,4.086,15.78,7.854,25.648,10.353C115.803,161.494,147.605,135,185.5,135h69.439L226.814,90z"/>
	</g>
</g>
<g>
	<g>
		<rect x="50" width="171" height="60"/>
	</g>
</g>
<g>
	<g>
		<path d="M346,165H185.5c-27.614,0-50,22.386-50,50c0,16.357,7.856,30.878,20,40v197c0,24.75,20.25,45,42,45H331    c24.813,0,45-20.187,45-45V255.498l4.645-4.432C390.547,241.617,396,228.809,396,215C396,187.43,373.571,165,346,165z M331,452    h-30v-30h30V452z M331,392h-30v-30h30V392z"/>
	</g>
</g>
<g>
	<g>
		<path d="M462,165h-53.616C419.392,178.707,426,196.092,426,215c0,11.21-2.257,22.012-6.554,31.918h81.028    C507.667,238.258,512,227.137,512,215C512,187.386,489.614,165,462,165z"/>
	</g>
</g>
<g>
	<g>
		<path d="M406,276.918V452c0,16.871-5.603,32.456-15.041,45H444c27.75,0,48-20.25,48-45V276.918H406z"/>
	</g>
</g>
<g>
</g>
<g>
</g>
<g>
</g>
<g>
</g>
<g>
</g>
<g>
</g>
<g>
</g>
<g>
</g>
<g>
</g>
<g>
</g>
<g>
</g>
<g>
</g>
<g>
</g>
<g>
</g>
<g>
</g>
</svg>
