<?xml version="1.0" encoding="iso-8859-1"?>
<!-- Generator: Adobe Illustrator 19.0.0, SVG Export Plug-In . SVG Version: 6.00 Build 0)  -->
<svg xmlns="http://www.w3.org/2000/svg" xmlns:xlink="http://www.w3.org/1999/xlink" version="1.1" id="Layer_1" x="0px" y="0px" viewBox="0 0 512 512" style="enable-background:new 0 0 512 512;" xml:space="preserve">
<g>
	<g>
		<rect x="332" y="196.05" width="30" height="30"/>
	</g>
</g>
<g>
	<g>
		<rect x="272" y="256.05" width="30" height="30"/>
	</g>
</g>
<g>
	<g>
		<rect x="332" y="256.05" width="30" height="30"/>
	</g>
</g>
<g>
	<g>
		<rect x="212" y="256.05" width="30" height="30"/>
	</g>
</g>
<g>
	<g>
		<polygon points="90,90.107 90,166.054 392,166.054 392,316.054 90,316.054 90,392 422,392 422,90.107   "/>
	</g>
</g>
<g>
	<g>
		<path d="M90,196.054v90h92v-90H90z M136,256.054c-8.284,0-15-6.716-15-15s6.716-15,15-15s15,6.716,15,15    S144.284,256.054,136,256.054z"/>
	</g>
</g>
<g>
	<g>
		<rect x="272" y="196.05" width="30" height="30"/>
	</g>
</g>
<g>
	<g>
		<rect x="212" y="196.05" width="30" height="30"/>
	</g>
</g>
<g>
	<g>
		<path d="M0,0v512h90v-30h332v30h90V0H0z M452,422H60V60.107h392V422z"/>
	</g>
</g>
<g>
</g>
<g>
</g>
<g>
</g>
<g>
</g>
<g>
</g>
<g>
</g>
<g>
</g>
<g>
</g>
<g>
</g>
<g>
</g>
<g>
</g>
<g>
</g>
<g>
</g>
<g>
</g>
<g>
</g>
</svg>
