<?xml version="1.0" encoding="iso-8859-1"?>
<!-- Generator: Adobe Illustrator 19.0.0, SVG Export Plug-In . SVG Version: 6.00 Build 0)  -->
<svg xmlns="http://www.w3.org/2000/svg" xmlns:xlink="http://www.w3.org/1999/xlink" version="1.1" id="Layer_1" x="0px" y="0px" viewBox="0 0 512 512" style="enable-background:new 0 0 512 512;" xml:space="preserve">
<g>
	<g>
		<rect x="402" width="110" height="190"/>
	</g>
</g>
<g>
	<g>
		<polygon points="405.289,402 425.292,482 442.003,482 442.003,512 472.003,512 472.003,482 488.716,482 508.712,402   "/>
	</g>
</g>
<g>
	<g>
		<rect x="402" y="220" width="110" height="152"/>
	</g>
</g>
<g>
	<g>
		<rect x="165" y="90" width="117" height="90"/>
	</g>
</g>
<g>
	<g>
		<path d="M90,0v452h267V0H90z M312,270H135v-30h177V270z M312,210H135V60h177V210z"/>
	</g>
</g>
<g>
	<g>
		<polygon points="30,482 30,452 60,452 60,0 0,0 0,512 357,512 357,482   "/>
	</g>
</g>
<g>
</g>
<g>
</g>
<g>
</g>
<g>
</g>
<g>
</g>
<g>
</g>
<g>
</g>
<g>
</g>
<g>
</g>
<g>
</g>
<g>
</g>
<g>
</g>
<g>
</g>
<g>
</g>
<g>
</g>
</svg>
