<?xml version="1.0" encoding="iso-8859-1"?>
<!-- Generator: Adobe Illustrator 19.0.0, SVG Export Plug-In . SVG Version: 6.00 Build 0)  -->
<svg xmlns="http://www.w3.org/2000/svg" xmlns:xlink="http://www.w3.org/1999/xlink" version="1.1" id="Layer_1" x="0px" y="0px" viewBox="0 0 512 512" style="enable-background:new 0 0 512 512;" xml:space="preserve">
<g>
	<g>
		<path d="M256.041,89.986c-91.519,0-165.973,74.455-165.973,165.973s74.455,165.973,165.973,165.973    s165.973-74.455,165.973-165.973S347.56,89.986,256.041,89.986z M365.437,175.482l14.998,25.976l-25.976,14.998l-14.998-25.976    L365.437,175.482z M241.043,120.981h29.995v29.995h-29.995V120.981z M121.063,240.961h29.995v29.995h-29.995V240.961z     M146.645,336.436l-14.998-25.976l25.976-14.998l14.998,25.976L146.645,336.436z M157.624,216.456l-25.976-14.998l14.998-25.976    l25.976,14.998L157.624,216.456z M201.539,131.565l14.998,25.977l-25.976,14.998l-14.998-25.977L201.539,131.565z M201.54,380.353    l-25.976-14.998l14.998-25.977l25.976,14.998L201.54,380.353z M241.042,200.968h0.001h29.995v39.994h59.99v29.995h-89.986V200.968    z M271.039,390.937h-29.995v-29.995h29.995V390.937z M310.542,380.353l-14.998-25.977l25.976-14.998l14.998,25.977    L310.542,380.353z M321.521,172.54l-25.976-14.998l14.998-25.977l25.976,14.998L321.521,172.54z M365.437,336.436l-25.976-14.998    l14.998-25.976l25.976,14.998L365.437,336.436z M361.024,270.957v-29.995h29.995v29.995H361.024z"/>
	</g>
</g>
<g>
	<g>
		<path d="M437.032,74.968C388.687,26.625,324.41,0,256.041,0S123.395,26.625,75.05,74.968    C26.707,123.313,0.082,187.59,0.082,255.959c0,42.81,10.73,84.976,31.079,122.334L0,512l133.706-31.161    c37.359,20.349,79.524,31.078,122.335,31.078c68.369,0,132.646-26.625,180.991-74.968C485.375,388.605,512,324.328,512,255.959    S485.375,123.313,437.032,74.968z M256.041,451.928c-108.058,0-195.969-87.911-195.969-195.969S147.983,59.99,256.041,59.99    S452.01,147.902,452.01,255.959S364.099,451.928,256.041,451.928z"/>
	</g>
</g>
<g>
</g>
<g>
</g>
<g>
</g>
<g>
</g>
<g>
</g>
<g>
</g>
<g>
</g>
<g>
</g>
<g>
</g>
<g>
</g>
<g>
</g>
<g>
</g>
<g>
</g>
<g>
</g>
<g>
</g>
</svg>
