<?xml version="1.0" encoding="iso-8859-1"?>
<!-- Generator: Adobe Illustrator 19.0.0, SVG Export Plug-In . SVG Version: 6.00 Build 0)  -->
<svg xmlns="http://www.w3.org/2000/svg" xmlns:xlink="http://www.w3.org/1999/xlink" version="1.1" id="Layer_1" x="0px" y="0px" viewBox="0 0 512 512" style="enable-background:new 0 0 512 512;" xml:space="preserve">
<g>
	<g>
		<path d="M118.396,350.063L74.394,470.958l66.642-7.669L187.157,512l41.4-113.744C186.976,392.935,149.078,375.683,118.396,350.063    z"/>
	</g>
</g>
<g>
	<g>
		<path d="M394.631,349.193c-30.547,25.832-68.365,43.312-109.909,48.883L326.187,512l46.121-48.712l66.642,7.669L394.631,349.193z"/>
	</g>
</g>
<g>
	<g>
		<path d="M193.787,10.774c-21.218,7.599-40.653,18.97-57.499,33.301l42.604,42.604c9.216-7.241,19.473-13.212,30.502-17.66    L193.787,10.774z"/>
	</g>
</g>
<g>
	<g>
		<path d="M140.018,231.607l-58.244,15.606c7.599,21.218,18.97,40.653,33.301,57.499l42.604-42.604    C150.437,252.893,144.466,242.636,140.018,231.607z"/>
	</g>
</g>
<g>
	<g>
		<path d="M132.249,167.37l-58.252-15.609C72.032,162.548,71,173.655,71,185c0,11.345,1.032,22.452,2.997,33.239l58.252-15.609    C131.432,196.868,131,190.984,131,185S131.432,173.132,132.249,167.37z"/>
	</g>
</g>
<g>
	<g>
		<path d="M115.076,65.289c-14.332,16.846-25.702,36.281-33.301,57.499l58.245,15.607c4.447-11.03,10.417-21.287,17.66-30.502    L115.076,65.289z"/>
	</g>
</g>
<g>
	<g>
		<path d="M256,0c-11.344,0-22.452,1.032-33.238,2.997l15.609,58.252C244.133,60.432,250.016,60,256,60s11.867,0.432,17.629,1.249    l15.609-58.252C278.452,1.032,267.344,0,256,0z"/>
	</g>
</g>
<g>
	<g>
		<path d="M318.212,10.775L302.605,69.02c11.029,4.448,21.286,10.418,30.501,17.661l42.605-42.605    C358.865,29.744,339.43,18.374,318.212,10.775z"/>
	</g>
</g>
<g>
	<g>
		<path d="M273.629,308.751C267.867,309.568,261.984,310,256,310s-11.867-0.432-17.629-1.249l-15.609,58.252    C233.548,368.968,244.656,370,256,370s22.452-1.032,33.238-2.997L273.629,308.751z"/>
	</g>
</g>
<g>
	<g>
		<path d="M256,90c-52.383,0-95,42.617-95,95s42.617,95,95,95s95-42.617,95-95S308.383,90,256,90z"/>
	</g>
</g>
<g>
	<g>
		<path d="M178.893,283.32l-42.604,42.604c16.846,14.332,36.281,25.702,57.499,33.301l15.606-58.244    C198.365,296.533,188.108,290.563,178.893,283.32z"/>
	</g>
</g>
<g>
	<g>
		<path d="M333.107,283.32c-9.215,7.243-19.472,13.213-30.501,17.661l15.607,58.245c21.218-7.6,40.653-18.97,57.498-33.302    L333.107,283.32z"/>
	</g>
</g>
<g>
	<g>
		<path d="M396.924,65.288l-42.604,42.604c7.243,9.216,13.213,19.473,17.661,30.502l58.244-15.607    C422.626,101.569,411.256,82.134,396.924,65.288z"/>
	</g>
</g>
<g>
	<g>
		<path d="M371.982,231.606c-4.448,11.029-10.418,21.286-17.661,30.501l42.604,42.604c14.331-16.846,25.701-36.28,33.301-57.498    L371.982,231.606z"/>
	</g>
</g>
<g>
	<g>
		<path d="M438.003,151.761l-58.252,15.609C380.568,173.132,381,179.016,381,185s-0.432,11.868-1.249,17.63l58.252,15.609    C439.968,207.452,441,196.345,441,185C441,173.655,439.968,162.548,438.003,151.761z"/>
	</g>
</g>
<g>
</g>
<g>
</g>
<g>
</g>
<g>
</g>
<g>
</g>
<g>
</g>
<g>
</g>
<g>
</g>
<g>
</g>
<g>
</g>
<g>
</g>
<g>
</g>
<g>
</g>
<g>
</g>
<g>
</g>
</svg>
