<?xml version="1.0" encoding="iso-8859-1"?>
<!-- Generator: Adobe Illustrator 19.0.0, SVG Export Plug-In . SVG Version: 6.00 Build 0)  -->
<svg xmlns="http://www.w3.org/2000/svg" xmlns:xlink="http://www.w3.org/1999/xlink" version="1.1" id="Layer_1" x="0px" y="0px" viewBox="0 0 512 512" style="enable-background:new 0 0 512 512;" xml:space="preserve">
<g>
	<g>
		<path d="M0,310.998v105h38.5c0-41.355,33.645-75,75-75s75,33.645,75,75H255v-105H0z"/>
	</g>
</g>
<g>
	<g>
		<polygon points="172.5,51.006 172.5,156.006 82.5,156.006 82.5,51.006 0,51.006 0,280.998 255,280.998 255,51.006   "/>
	</g>
</g>
<g>
	<g>
		<rect x="112.5" y="51.002" width="30" height="75"/>
	</g>
</g>
<g>
	<g>
		<path d="M466.244,257.847l-58.193-86.841H285v244.992h38.5c0-41.355,33.645-75,75-75c41.355,0,75,33.645,75,75H512V269.287    L466.244,257.847z"/>
	</g>
</g>
<g>
	<g>
		<path d="M158.268,411.397c-1.076-10.589-5.823-20.093-12.948-27.219c-1.018-1.018-2.084-1.987-3.196-2.904    c-2.222-1.834-4.624-3.459-7.174-4.845c-2.55-1.385-5.25-2.531-8.068-3.408c-1.409-0.438-2.848-0.809-4.313-1.109    c-2.929-0.599-5.962-0.914-9.069-0.914c-1.553,0-3.088,0.079-4.601,0.232c-21.179,2.151-38.016,18.988-40.167,40.167    c-0.154,1.513-0.232,3.048-0.232,4.601c0,3.106,0.315,6.14,0.914,9.069c0.3,1.465,0.671,2.904,1.109,4.313    c0.877,2.818,2.023,5.518,3.408,8.068c0.693,1.275,1.445,2.513,2.254,3.71c0.809,1.197,1.673,2.353,2.591,3.464    c0.459,0.556,0.93,1.1,1.414,1.633c2.421,2.664,5.157,5.036,8.15,7.058c4.19,2.83,8.881,4.974,13.914,6.269    c2.157,0.555,4.376,0.954,6.645,1.184c1.513,0.154,3.048,0.232,4.601,0.232c24.853,0,45-20.147,45-45    C158.5,414.445,158.421,412.91,158.268,411.397z"/>
	</g>
</g>
<g>
	<g>
		<path d="M443.268,411.397c-1.076-10.589-5.823-20.093-12.948-27.219c-1.018-1.018-2.084-1.987-3.196-2.904    c-2.222-1.834-4.624-3.459-7.174-4.845c-2.55-1.385-5.25-2.531-8.068-3.408c-1.409-0.438-2.848-0.809-4.313-1.109    c-2.929-0.599-5.962-0.914-9.069-0.914s-6.14,0.315-9.069,0.914c-1.465,0.3-2.904,0.671-4.313,1.109    c-2.818,0.876-5.518,2.023-8.068,3.408c-2.55,1.386-4.952,3.01-7.174,4.845c-1.111,0.917-2.178,1.886-3.196,2.904    c-7.125,7.125-11.872,16.629-12.948,27.219c-0.154,1.513-0.232,3.048-0.232,4.601c0,24.853,20.147,45,45,45    c24.853,0,45-20.147,45-45C443.5,414.445,443.421,412.91,443.268,411.397z"/>
	</g>
</g>
<g>
</g>
<g>
</g>
<g>
</g>
<g>
</g>
<g>
</g>
<g>
</g>
<g>
</g>
<g>
</g>
<g>
</g>
<g>
</g>
<g>
</g>
<g>
</g>
<g>
</g>
<g>
</g>
<g>
</g>
</svg>
