<?xml version="1.0" encoding="iso-8859-1"?>
<!-- Generator: Adobe Illustrator 19.0.0, SVG Export Plug-In . SVG Version: 6.00 Build 0)  -->
<svg xmlns="http://www.w3.org/2000/svg" xmlns:xlink="http://www.w3.org/1999/xlink" version="1.1" id="Layer_1" x="0px" y="0px" viewBox="0 0 512 512" style="enable-background:new 0 0 512 512;" xml:space="preserve">
<g>
	<g>
		<path d="M287.328,409.769C277.091,411.229,266.635,412,256,412s-21.091-0.771-31.329-2.231L191.305,474H241v38h30v-38h49.695    L287.328,409.769z"/>
	</g>
</g>
<g>
	<g>
		<path d="M256,176c-8.271,0-15,6.729-15,15s6.729,15,15,15s15-6.729,15-15S264.271,176,256,176z"/>
	</g>
</g>
<g>
	<g>
		<path d="M256,0C150.683,0,65,85.682,65,191s85.683,191,191,191s191-85.682,191-191S361.317,0,256,0z M387,206h-27.076    c-2.552,17.763-9.56,34.106-19.862,47.849l19.175,19.175l-21.213,21.213l-19.175-19.175    c-13.743,10.301-30.086,17.31-47.849,19.862V322h-30v-27.076c-17.763-2.552-34.106-9.56-47.849-19.862l-19.175,19.175    l-21.213-21.213l19.175-19.175c-10.302-13.743-17.31-30.086-19.862-47.849H125v-30h27.076c2.552-17.763,9.56-34.106,19.862-47.849    l-19.175-19.175l21.213-21.213l19.175,19.175c13.743-10.301,30.086-17.31,47.849-19.862V60h30v27.076    c17.763,2.552,34.106,9.56,47.849,19.862l19.175-19.175l21.213,21.213l-19.175,19.175c10.302,13.743,17.31,30.086,19.862,47.849    H387V206z"/>
	</g>
</g>
<g>
	<g>
		<path d="M256,116c-41.355,0-75,33.645-75,75s33.645,75,75,75s75-33.645,75-75S297.355,116,256,116z M256,236    c-24.813,0-45-20.187-45-45s20.187-45,45-45s45,20.187,45,45S280.813,236,256,236z"/>
	</g>
</g>
<g>
</g>
<g>
</g>
<g>
</g>
<g>
</g>
<g>
</g>
<g>
</g>
<g>
</g>
<g>
</g>
<g>
</g>
<g>
</g>
<g>
</g>
<g>
</g>
<g>
</g>
<g>
</g>
<g>
</g>
</svg>
