<?xml version="1.0" encoding="iso-8859-1"?>
<!-- Generator: Adobe Illustrator 19.0.0, SVG Export Plug-In . SVG Version: 6.00 Build 0)  -->
<svg xmlns="http://www.w3.org/2000/svg" xmlns:xlink="http://www.w3.org/1999/xlink" version="1.1" id="Layer_1" x="0px" y="0px" viewBox="0 0 512 512" style="enable-background:new 0 0 512 512;" xml:space="preserve">
<g>
	<g>
		<path d="M256,135c-22.518,0-43.336,7.267-60.249,19.576c43.372,42.912,102.155,67.609,161.651,67.909    C350.137,172.995,307.508,135,256,135z"/>
	</g>
</g>
<g>
	<g>
		<path d="M174.32,175.576c-13.063,17.204-20.82,38.657-20.82,61.924v37c0,56.609,45.891,102.5,102.5,102.5    s102.5-45.891,102.5-102.5v-22C290.635,252.5,223.564,224.469,174.32,175.576z"/>
	</g>
</g>
<g>
	<g>
		<path d="M481.498,241L481.498,241c-3.562-54.72-26.561-105.676-65.691-144.806C376.676,57.063,325.721,34.064,271,30.502V0h-30    v30.502c-54.721,3.562-105.676,26.562-144.807,65.692C57.063,135.324,34.064,186.28,30.502,241H0v30h30.502    c3.562,54.72,26.561,105.676,65.691,144.806c39.131,39.13,90.086,62.13,144.807,65.692V512h30v-30.502    c54.721-3.562,105.676-26.562,144.807-65.692c39.13-39.13,62.129-90.086,65.691-144.806H512v-30H481.498z M451.431,271    c-7.31,96.142-84.289,173.121-180.431,180.431V422h-30v29.431C144.857,444.121,67.879,367.142,60.569,271H90v-30H60.569    C67.879,144.858,144.857,67.879,241,60.569V90h30V60.569c96.143,7.31,173.121,84.289,180.431,180.431H422v30H451.431z"/>
	</g>
</g>
<g>
</g>
<g>
</g>
<g>
</g>
<g>
</g>
<g>
</g>
<g>
</g>
<g>
</g>
<g>
</g>
<g>
</g>
<g>
</g>
<g>
</g>
<g>
</g>
<g>
</g>
<g>
</g>
<g>
</g>
</svg>
