<?xml version="1.0" encoding="iso-8859-1"?>
<!-- Generator: Adobe Illustrator 19.0.0, SVG Export Plug-In . SVG Version: 6.00 Build 0)  -->
<svg xmlns="http://www.w3.org/2000/svg" xmlns:xlink="http://www.w3.org/1999/xlink" version="1.1" id="Layer_1" x="0px" y="0px" viewBox="0 0 512 512" style="enable-background:new 0 0 512 512;" xml:space="preserve">
<g>
	<g>
		<rect x="406.5" y="331.5" width="105.5" height="90.25"/>
	</g>
</g>
<g>
	<g>
		<rect x="406.5" y="105.5" width="105.5" height="196"/>
	</g>
</g>
<g>
	<g>
		<path d="M406.5,451.75c0,29.086,23.664,52.75,52.75,52.75S512,480.836,512,451.75H406.5z"/>
	</g>
</g>
<g>
	<g>
		<path d="M0,451.75c0,29.086,23.664,52.75,52.75,52.75s52.75-23.664,52.75-52.75H0z"/>
	</g>
</g>
<g>
	<g>
		<rect y="331.5" width="105.5" height="90.25"/>
	</g>
</g>
<g>
	<g>
		<rect y="105.5" width="105.5" height="196"/>
	</g>
</g>
<g>
	<g>
		<rect x="271" y="331.5" width="105.5" height="90.25"/>
	</g>
</g>
<g>
	<g>
		<rect x="271" y="7.5" width="105.5" height="294"/>
	</g>
</g>
<g>
	<g>
		<path d="M271,451.75c0,29.086,23.664,52.75,52.75,52.75s52.75-23.664,52.75-52.75H271z"/>
	</g>
</g>
<g>
	<g>
		<path d="M135.5,451.75c0,29.086,23.664,52.75,52.75,52.75S241,480.836,241,451.75H135.5z"/>
	</g>
</g>
<g>
	<g>
		<rect x="135.5" y="331.5" width="105.5" height="90.25"/>
	</g>
</g>
<g>
	<g>
		<rect x="135.5" y="202.5" width="105.5" height="99"/>
	</g>
</g>
<g>
</g>
<g>
</g>
<g>
</g>
<g>
</g>
<g>
</g>
<g>
</g>
<g>
</g>
<g>
</g>
<g>
</g>
<g>
</g>
<g>
</g>
<g>
</g>
<g>
</g>
<g>
</g>
<g>
</g>
</svg>
