<?xml version="1.0" encoding="iso-8859-1"?>
<!-- Generator: Adobe Illustrator 19.0.0, SVG Export Plug-In . SVG Version: 6.00 Build 0)  -->
<svg xmlns="http://www.w3.org/2000/svg" xmlns:xlink="http://www.w3.org/1999/xlink" version="1.1" id="Layer_1" x="0px" y="0px" viewBox="0 0 512 512" style="enable-background:new 0 0 512 512;" xml:space="preserve">
<g>
	<g>
		<path d="M79.118,378.671L0,457.789l53.085,53.085l78.781-78.781C111.787,416.96,94.003,398.944,79.118,378.671z"/>
	</g>
</g>
<g>
	<g>
		<path d="M285.779,151.273c-41.947,0-76.074,34.126-76.074,76.074c0,41.948,34.127,76.074,76.074,76.074    c41.947,0,76.074-34.126,76.074-76.074C361.853,185.399,327.726,151.273,285.779,151.273z M300.794,273.392h-30.029v-92.09h30.029    V273.392z"/>
	</g>
</g>
<g>
	<g>
		<path d="M285.779,1.126c-124.739,0-226.221,101.482-226.221,226.221S161.04,453.568,285.779,453.568S512,352.086,512,227.347    S410.518,1.126,285.779,1.126z M285.779,408.524c-99.902,0-181.177-81.275-181.177-181.177S185.878,46.17,285.779,46.17    s181.177,81.275,181.177,181.177S385.681,408.524,285.779,408.524z"/>
	</g>
</g>
<g>
	<g>
		<path d="M285.779,76.199c-83.343,0-151.148,67.804-151.148,151.148s67.804,151.148,151.148,151.148    s151.148-67.804,151.148-151.148S369.122,76.199,285.779,76.199z M285.779,333.451c-58.505,0-106.104-47.597-106.104-106.104    c0-58.506,47.598-106.104,106.104-106.104c58.505,0,106.104,47.597,106.104,106.104    C391.883,285.853,344.284,333.451,285.779,333.451z"/>
	</g>
</g>
<g>
</g>
<g>
</g>
<g>
</g>
<g>
</g>
<g>
</g>
<g>
</g>
<g>
</g>
<g>
</g>
<g>
</g>
<g>
</g>
<g>
</g>
<g>
</g>
<g>
</g>
<g>
</g>
<g>
</g>
</svg>
