<?xml version="1.0" encoding="iso-8859-1"?>
<!-- Generator: Adobe Illustrator 19.0.0, SVG Export Plug-In . SVG Version: 6.00 Build 0)  -->
<svg xmlns="http://www.w3.org/2000/svg" xmlns:xlink="http://www.w3.org/1999/xlink" version="1.1" id="Layer_1" x="0px" y="0px" viewBox="0 0 512 512" style="enable-background:new 0 0 512 512;" xml:space="preserve">
<g>
	<g>
		<path d="M387,236H230v250h157c68.925,0,125-56.075,125-125S455.925,236,387,236z M387,426c-35.841,0-65-29.159-65-65    s29.159-65,65-65s65,29.159,65,65S422.841,426,387,426z"/>
	</g>
</g>
<g>
	<g>
		<path d="M387,326c-19.299,0-35,15.701-35,35s15.701,35,35,35s35-15.701,35-35S406.299,326,387,326z"/>
	</g>
</g>
<g>
	<g>
		<path d="M90,361c0,63.849,48.122,116.663,110,124.097V236.903C138.122,244.337,90,297.151,90,361z"/>
	</g>
</g>
<g>
	<g>
		<path d="M60.728,376H0v110h123.461C88.807,460.554,65.077,421.071,60.728,376z"/>
	</g>
</g>
<g>
	<g>
		<path d="M0,236v110h60.728c4.349-45.071,28.079-84.554,62.733-110H0z"/>
	</g>
</g>
<g>
	<g>
		<rect x="170" y="146" width="232" height="60"/>
	</g>
</g>
<g>
	<g>
		<path d="M361,26c-33.084,0-60,26.916-60,60v30h30V86c0-16.542,13.458-30,30-30h30V26H361z"/>
	</g>
</g>
<g>
	<g>
		<rect x="241" y="86" width="30" height="30"/>
	</g>
</g>
<g>
</g>
<g>
</g>
<g>
</g>
<g>
</g>
<g>
</g>
<g>
</g>
<g>
</g>
<g>
</g>
<g>
</g>
<g>
</g>
<g>
</g>
<g>
</g>
<g>
</g>
<g>
</g>
<g>
</g>
</svg>
