<?xml version="1.0" encoding="iso-8859-1"?>
<!-- Generator: Adobe Illustrator 19.0.0, SVG Export Plug-In . SVG Version: 6.00 Build 0)  -->
<svg xmlns="http://www.w3.org/2000/svg" xmlns:xlink="http://www.w3.org/1999/xlink" version="1.1" id="Layer_1" x="0px" y="0px" viewBox="0 0 512 512" style="enable-background:new 0 0 512 512;" xml:space="preserve">
<g>
	<g>
		<rect x="271" y="376.5" width="60.5" height="60.5"/>
	</g>
</g>
<g>
	<g>
		<rect x="90" y="286" width="60.5" height="60.5"/>
	</g>
</g>
<g>
	<g>
		<rect x="361.5" y="376.5" width="60.5" height="60.5"/>
	</g>
</g>
<g>
	<g>
		<rect x="180.5" y="286" width="60.5" height="60.5"/>
	</g>
</g>
<g>
	<g>
		<rect x="180.5" y="376.5" width="60.5" height="60.5"/>
	</g>
</g>
<g>
	<g>
		<rect x="271" y="286" width="60.5" height="60.5"/>
	</g>
</g>
<g>
	<g>
		<path d="M0,136v376h512V136H0z M452,467H60V256h392V467z M452,211H60v-30h392V211z"/>
	</g>
</g>
<g>
	<g>
		<rect x="90" y="376.5" width="60.5" height="60.5"/>
	</g>
</g>
<g>
	<g>
		<rect x="361.5" y="286" width="60.5" height="60.5"/>
	</g>
</g>
<g>
	<g>
		<polygon points="415.6,30 415.6,61 385.6,61 385.6,30 319.2,30 319.2,61 289.2,61 289.2,30 222.8,30 222.8,61 192.8,61 192.8,30     126.4,30 126.4,61 96.4,61 96.4,30 0,30 0,106 512,106 512,30   "/>
	</g>
</g>
<g>
	<g>
		<rect x="96.4" width="30" height="30"/>
	</g>
</g>
<g>
	<g>
		<rect x="192.8" width="30" height="30"/>
	</g>
</g>
<g>
	<g>
		<rect x="289.2" width="30" height="30"/>
	</g>
</g>
<g>
	<g>
		<rect x="385.6" width="30" height="30"/>
	</g>
</g>
<g>
</g>
<g>
</g>
<g>
</g>
<g>
</g>
<g>
</g>
<g>
</g>
<g>
</g>
<g>
</g>
<g>
</g>
<g>
</g>
<g>
</g>
<g>
</g>
<g>
</g>
<g>
</g>
<g>
</g>
</svg>
