<?xml version="1.0" encoding="iso-8859-1"?>
<!-- Generator: Adobe Illustrator 19.0.0, SVG Export Plug-In . SVG Version: 6.00 Build 0)  -->
<svg xmlns="http://www.w3.org/2000/svg" xmlns:xlink="http://www.w3.org/1999/xlink" version="1.1" id="Layer_1" x="0px" y="0px" viewBox="0 0 512 512" style="enable-background:new 0 0 512 512;" xml:space="preserve">
<g>
	<g>
		<path d="M136,0h-15v15c0,58.667,37.62,108.704,90,127.278V135c0-32.836,9.645-63.46,26.245-89.194C212.489,17.738,176.28,0,136,0z    "/>
	</g>
</g>
<g>
	<g>
		<path d="M256,270c-41.906,0-76,34.093-76,76c0,41.907,34.094,76,76,76s76-34.093,76-76C332,304.093,297.906,270,256,270z M271,392    h-30v-92h30V392z"/>
	</g>
</g>
<g>
	<g>
		<path d="M271,180.685v-31.523C338.406,141.676,391,84.369,391,15V0h-15c-74.439,0-135,60.561-135,135v45.685    C156.471,188.293,90,259.524,90,346c0,91.533,74.468,166,166,166s166-74.467,166-166C422,259.524,355.529,188.293,271,180.685z     M256,452c-58.448,0-106-47.551-106-106c0-58.449,47.552-106,106-106s106,47.551,106,106C362,404.449,314.448,452,256,452z"/>
	</g>
</g>
<g>
</g>
<g>
</g>
<g>
</g>
<g>
</g>
<g>
</g>
<g>
</g>
<g>
</g>
<g>
</g>
<g>
</g>
<g>
</g>
<g>
</g>
<g>
</g>
<g>
</g>
<g>
</g>
<g>
</g>
</svg>
