<?xml version="1.0" encoding="iso-8859-1"?>
<!-- Generator: Adobe Illustrator 19.0.0, SVG Export Plug-In . SVG Version: 6.00 Build 0)  -->
<svg xmlns="http://www.w3.org/2000/svg" xmlns:xlink="http://www.w3.org/1999/xlink" version="1.1" id="Layer_1" x="0px" y="0px" viewBox="0 0 512 512" style="enable-background:new 0 0 512 512;" xml:space="preserve">
<g>
	<g>
		<path d="M383.5,377h-255c-24.75,0-45,20.25-45,45h345C428.5,397.25,408.25,377,383.5,377z"/>
	</g>
</g>
<g>
	<g>
		<polygon points="428.5,482 428.5,452 83.5,452 83.5,482 38.5,482 38.5,512 473.5,512 473.5,482   "/>
	</g>
</g>
<g>
	<g>
		<rect x="143.5" y="302" width="225" height="45"/>
	</g>
</g>
<g>
	<g>
		<path d="M361,165h-55.243C330.011,148.877,346,121.307,346,90c0-49.706-40.294-90-90-90s-90,40.294-90,90    c0,31.307,15.989,58.877,40.243,75H151v30h52.053l-18.934,77h143.763l-18.934-77H361V165z"/>
	</g>
</g>
<g>
</g>
<g>
</g>
<g>
</g>
<g>
</g>
<g>
</g>
<g>
</g>
<g>
</g>
<g>
</g>
<g>
</g>
<g>
</g>
<g>
</g>
<g>
</g>
<g>
</g>
<g>
</g>
<g>
</g>
</svg>
