<?xml version="1.0" encoding="iso-8859-1"?>
<!-- Generator: Adobe Illustrator 19.0.0, SVG Export Plug-In . SVG Version: 6.00 Build 0)  -->
<svg xmlns="http://www.w3.org/2000/svg" xmlns:xlink="http://www.w3.org/1999/xlink" version="1.1" id="Layer_1" x="0px" y="0px" viewBox="0 0 512 512" style="enable-background:new 0 0 512 512;" xml:space="preserve">
<g>
	<g>
		<path d="M256,0c-25.93,0-49.853,8.585-69.089,23.063c49.083,48.668,115.703,76.657,183.114,76.924C362.669,43.569,314.424,0,256,0    z"/>
	</g>
</g>
<g>
	<g>
		<path d="M165.48,44.063C150.145,63.604,141,88.234,141,115v42c0,63.513,51.487,115,115,115s115-51.487,115-115v-27    C295.261,130,220.405,98.683,165.48,44.063z"/>
	</g>
</g>
<g>
	<g>
		<rect x="271" y="332" width="45" height="180"/>
	</g>
</g>
<g>
	<g>
		<path d="M46,467v45h120V332.838C98.594,340.324,46,397.631,46,467z"/>
	</g>
</g>
<g>
	<g>
		<path d="M346,332.838V417h45v30h-45v65h120v-45C466,397.631,413.406,340.324,346,332.838z"/>
	</g>
</g>
<g>
	<g>
		<rect x="196" y="332" width="45" height="180"/>
	</g>
</g>
<g>
</g>
<g>
</g>
<g>
</g>
<g>
</g>
<g>
</g>
<g>
</g>
<g>
</g>
<g>
</g>
<g>
</g>
<g>
</g>
<g>
</g>
<g>
</g>
<g>
</g>
<g>
</g>
<g>
</g>
</svg>
