<?xml version="1.0" encoding="iso-8859-1"?>
<!-- Generator: Adobe Illustrator 19.0.0, SVG Export Plug-In . SVG Version: 6.00 Build 0)  -->
<svg xmlns="http://www.w3.org/2000/svg" xmlns:xlink="http://www.w3.org/1999/xlink" version="1.1" id="Layer_1" x="0px" y="0px" viewBox="0 0 512 512" style="enable-background:new 0 0 512 512;" xml:space="preserve">
<g>
	<g>
		<path d="M46,467v45h120V332.838C98.594,340.324,46,397.631,46,467z"/>
	</g>
</g>
<g>
	<g>
		<polygon points="196,332 196,341.328 256,409.329 316,341.328 316,332   "/>
	</g>
</g>
<g>
	<g>
		<polygon points="196,386.672 196,512 241,512 241,437.671   "/>
	</g>
</g>
<g>
	<g>
		<path d="M346,332.838V417h45v30h-45v65h120v-45C466,397.631,413.406,340.324,346,332.838z"/>
	</g>
</g>
<g>
	<g>
		<polygon points="271,437.671 271,512 316,512 316,386.672   "/>
	</g>
</g>
<g>
	<g>
		<path d="M111,157v-50.153l-34.533,60.605C69.62,179.471,66,193.146,66,207c0,44.112,35.888,80,80,80h45.827    C143.978,263.283,111,213.924,111,157z"/>
	</g>
</g>
<g>
	<g>
		<path d="M435.533,167.451L401,106.846v50.153c0,56.924-32.978,106.283-80.827,130H366c44.112,0.001,80-35.888,80-80    C446,193.145,442.38,179.47,435.533,167.451z"/>
	</g>
</g>
<g>
	<g>
		<path d="M327.586,25C307.942,9.354,283.065,0,256,0c-25.93,0-49.853,8.585-69.089,23.063    c49.083,48.668,115.703,76.657,183.114,76.924C366.076,69.705,350.346,43.128,327.586,25z"/>
	</g>
</g>
<g>
	<g>
		<path d="M165.481,44.064c-15.335,19.541-24.48,44.171-24.48,70.937v42C141,220.513,192.487,272,256,272s115-51.487,115-115v-27    C295.262,130,220.406,98.683,165.481,44.064z"/>
	</g>
</g>
<g>
</g>
<g>
</g>
<g>
</g>
<g>
</g>
<g>
</g>
<g>
</g>
<g>
</g>
<g>
</g>
<g>
</g>
<g>
</g>
<g>
</g>
<g>
</g>
<g>
</g>
<g>
</g>
<g>
</g>
</svg>
