<?xml version="1.0" encoding="iso-8859-1"?>
<!-- Generator: Adobe Illustrator 19.0.0, SVG Export Plug-In . SVG Version: 6.00 Build 0)  -->
<svg xmlns="http://www.w3.org/2000/svg" xmlns:xlink="http://www.w3.org/1999/xlink" version="1.1" id="Layer_1" x="0px" y="0px" viewBox="0 0 512 512" style="enable-background:new 0 0 512 512;" xml:space="preserve">
<g>
	<g>
		<path d="M392,409.849C353.265,436.425,306.42,452,256,452c-50.42,0-97.265-15.575-136-42.15    c-10.642-7.301-20.678-15.425-30-24.294V512h30v-30h272v30h30V385.555C412.678,394.424,402.642,402.548,392,409.849z"/>
	</g>
</g>
<g>
	<g>
		<path d="M256,80.5c-71.958,0-130.5,58.542-130.5,130.5S184.042,341.5,256,341.5S386.5,282.958,386.5,211S327.958,80.5,256,80.5z     M256,291c-44.112,0-80-35.888-80-80s35.888-80,80-80s80,35.888,80,80S300.112,291,256,291z"/>
	</g>
</g>
<g>
	<g>
		<path d="M256,161c-27.57,0-50,22.43-50,50s22.43,50,50,50s50-22.43,50-50S283.57,161,256,161z M256,226c-8.271,0-15-6.729-15-15    s6.729-15,15-15s15,6.729,15,15S264.271,226,256,226z"/>
	</g>
</g>
<g>
	<g>
		<path d="M256,0C139.654,0,45,94.654,45,211s94.654,211,211,211s211-94.654,211-211S372.346,0,256,0z M256,371.5    c-88.5,0-160.5-72-160.5-160.5S167.5,50.5,256,50.5s160.5,72,160.5,160.5S344.5,371.5,256,371.5z"/>
	</g>
</g>
<g>
</g>
<g>
</g>
<g>
</g>
<g>
</g>
<g>
</g>
<g>
</g>
<g>
</g>
<g>
</g>
<g>
</g>
<g>
</g>
<g>
</g>
<g>
</g>
<g>
</g>
<g>
</g>
<g>
</g>
</svg>
