<?xml version="1.0" encoding="iso-8859-1"?>
<!-- Generator: Adobe Illustrator 19.0.0, SVG Export Plug-In . SVG Version: 6.00 Build 0)  -->
<svg xmlns="http://www.w3.org/2000/svg" xmlns:xlink="http://www.w3.org/1999/xlink" version="1.1" id="Layer_1" x="0px" y="0px" viewBox="0 0 512 512" style="enable-background:new 0 0 512 512;" xml:space="preserve">
<g>
	<g>
		<polygon points="297.34,184.397 214.66,184.397 173.32,256 214.66,327.603 297.34,327.603 338.68,256   "/>
	</g>
</g>
<g>
	<g>
		<path d="M243.125,90.496c-48.024,3.701-90.382,27.932-118.305,63.902h155.199L243.125,90.496z"/>
	</g>
</g>
<g>
	<g>
		<path d="M278.351,91.51L356,226l36.856-63.836C366.905,124.433,325.777,97.922,278.351,91.51z"/>
	</g>
</g>
<g>
	<g>
		<path d="M106.253,184.398v-0.001C95.84,206.088,90,230.375,90,256c0,22.242,4.408,43.471,12.379,62.875l77.641-134.477H106.253z"/>
	</g>
</g>
<g>
	<g>
		<path d="M409.621,193.125L331.98,327.602h73.766C416.16,305.912,422,281.625,422,256C422,233.758,417.592,212.529,409.621,193.125    z"/>
	</g>
</g>
<g>
	<g>
		<path d="M156,286l-36.856,63.836c25.951,37.731,67.079,64.242,114.505,70.654L156,286z"/>
	</g>
</g>
<g>
	<g>
		<path d="M231.981,357.602l36.894,63.902c48.024-3.701,90.382-27.932,118.305-63.902H231.981z"/>
	</g>
</g>
<g>
	<g>
		<path d="M437.02,74.981C388.667,26.629,324.38,0,256,0S123.333,26.629,74.98,74.981C26.629,123.333,0,187.62,0,256    s26.629,132.667,74.98,181.019C123.333,485.371,187.62,512,256,512s132.667-26.629,181.02-74.981    C485.371,388.667,512,324.38,512,256S485.371,123.333,437.02,74.981z M256,452c-108.075,0-196-87.925-196-196S147.925,60,256,60    s196,87.925,196,196S364.075,452,256,452z"/>
	</g>
</g>
<g>
</g>
<g>
</g>
<g>
</g>
<g>
</g>
<g>
</g>
<g>
</g>
<g>
</g>
<g>
</g>
<g>
</g>
<g>
</g>
<g>
</g>
<g>
</g>
<g>
</g>
<g>
</g>
<g>
</g>
</svg>
