<?xml version="1.0" encoding="iso-8859-1"?>
<!-- Generator: Adobe Illustrator 19.0.0, SVG Export Plug-In . SVG Version: 6.00 Build 0)  -->
<svg xmlns="http://www.w3.org/2000/svg" xmlns:xlink="http://www.w3.org/1999/xlink" version="1.1" id="Layer_1" x="0px" y="0px" viewBox="0 0 512.001 512.001" style="enable-background:new 0 0 512.001 512.001;" xml:space="preserve">
<g>
	<g>
		<path d="M150.805,466.988c3.537,13.727,9.497,26.765,17.756,38.589l4.477,6.41l165.931,0.014l4.478-6.419    c8.253-11.831,14.209-24.866,17.747-38.582L150.805,466.988z"/>
	</g>
</g>
<g>
	<g>
		<path d="M364.987,391.999l-217.971-0.01L147,436.988c0,0.017,0.001,0.034,0.001,0.052v-0.052L365,437    C365,436.995,364.987,391.999,364.987,391.999z"/>
	</g>
</g>
<g>
	<g>
		<path d="M256,116c-41.355,0-75,33.645-75,75s33.645,75,75,75s75-33.645,75-75S297.356,116,256,116z M256,236    c-24.813,0-45-20.187-45-45s20.187-45,45-45s45,20.187,45,45S280.813,236,256,236z"/>
	</g>
</g>
<g>
	<g>
		<path d="M256,176c-8.271,0-15,6.729-15,15s6.729,15,15,15s15-6.729,15-15S264.271,176,256,176z"/>
	</g>
</g>
<g>
	<g>
		<path d="M256,0C150.682,0,65,85.682,65,191c0,35.373,9.756,69.929,28.212,99.935l42.391,71.053L376.393,362l42.396-71.066    C437.247,260.927,447,226.375,447,191C447,85.682,361.318,0,256,0z M387,206h-27.076c-2.552,17.763-9.56,34.106-19.862,47.849    l19.175,19.175l-21.213,21.213l-19.175-19.175c-13.743,10.301-30.086,17.309-47.849,19.862V322h-30v-27.076    c-17.763-2.552-34.106-9.56-47.849-19.862l-19.175,19.175l-21.213-21.213l19.175-19.175    c-10.301-13.743-17.31-30.086-19.862-47.849H125v-30h27.076c2.552-17.763,9.56-34.106,19.862-47.849l-19.175-19.175l21.213-21.213    l19.175,19.175c13.743-10.302,30.086-17.31,47.849-19.862V60h30v27.076c17.763,2.552,34.106,9.56,47.849,19.862l19.175-19.175    l21.213,21.213l-19.175,19.175c10.301,13.743,17.31,30.086,19.862,47.849H387V206z"/>
	</g>
</g>
<g>
</g>
<g>
</g>
<g>
</g>
<g>
</g>
<g>
</g>
<g>
</g>
<g>
</g>
<g>
</g>
<g>
</g>
<g>
</g>
<g>
</g>
<g>
</g>
<g>
</g>
<g>
</g>
<g>
</g>
</svg>
