<?xml version="1.0" encoding="iso-8859-1"?>
<!-- Generator: Adobe Illustrator 19.0.0, SVG Export Plug-In . SVG Version: 6.00 Build 0)  -->
<svg xmlns="http://www.w3.org/2000/svg" xmlns:xlink="http://www.w3.org/1999/xlink" version="1.1" id="Layer_1" x="0px" y="0px" viewBox="0 0 512 512" style="enable-background:new 0 0 512 512;" xml:space="preserve">
<g>
	<g>
		<polygon points="178.987,414 198.719,512 313.281,512 333.013,414   "/>
	</g>
</g>
<g>
	<g>
		<polygon points="106,294 106,354 166.907,354 172.947,384 339.053,384 345.093,354 406,354 406,294   "/>
	</g>
</g>
<g>
	<g>
		<path d="M276.923,146.124L256,119.652l-20.923,26.472c-3.649,4.708-5.577,10.335-5.577,16.278C229.5,177.068,241.388,189,256,189    s26.5-11.932,26.5-26.598C282.5,156.459,280.572,150.832,276.923,146.124z"/>
	</g>
</g>
<g>
	<g>
		<path d="M357.476,58.299c0,0-20.948,4.635-46.465,10.3C286.073,37.444,256,0,256,0s-30.073,37.444-55.011,68.599    c-25.517-5.665-46.465-10.3-46.465-10.3L154.5,162.374C154.5,218.501,199.943,264,256,264s101.5-45.499,101.5-101.626    L357.476,58.299z M256,219c-31.154,0-56.5-25.39-56.5-56.598c0-12.694,4.125-24.705,11.927-34.736l0.072-0.092L256,71.271    l44.573,56.395c7.803,10.031,11.927,22.042,11.927,34.736C312.5,193.61,287.154,219,256,219z"/>
	</g>
</g>
<g>
</g>
<g>
</g>
<g>
</g>
<g>
</g>
<g>
</g>
<g>
</g>
<g>
</g>
<g>
</g>
<g>
</g>
<g>
</g>
<g>
</g>
<g>
</g>
<g>
</g>
<g>
</g>
<g>
</g>
</svg>
