<?xml version="1.0" encoding="iso-8859-1"?>
<!-- Generator: Adobe Illustrator 19.0.0, SVG Export Plug-In . SVG Version: 6.00 Build 0)  -->
<svg xmlns="http://www.w3.org/2000/svg" xmlns:xlink="http://www.w3.org/1999/xlink" version="1.1" id="Layer_1" x="0px" y="0px" viewBox="0 0 512 512" style="enable-background:new 0 0 512 512;" xml:space="preserve">
<g>
	<g>
		<rect x="402" width="110" height="60"/>
	</g>
</g>
<g>
	<g>
		<rect x="402" y="90" width="110" height="100"/>
	</g>
</g>
<g>
	<g>
		<rect x="402" y="220" width="110" height="152"/>
	</g>
</g>
<g>
	<g>
		<polygon points="405.289,402 425.293,482 442.004,482 442.004,512 472.004,512 472.004,482 488.716,482 508.712,402   "/>
	</g>
</g>
<g>
	<g>
		<path d="M0,0v512h232V372h140V0H0z M186,342H60v-30h126V342z M312,282H60v-30h252V282z M312,222H60v-30h252V222z M312,162H60V60    h252V162z"/>
	</g>
</g>
<g>
	<g>
		<polygon points="262,402 262,512 372,402   "/>
	</g>
</g>
<g>
	<g>
		<rect x="90" y="90" width="192" height="42"/>
	</g>
</g>
<g>
</g>
<g>
</g>
<g>
</g>
<g>
</g>
<g>
</g>
<g>
</g>
<g>
</g>
<g>
</g>
<g>
</g>
<g>
</g>
<g>
</g>
<g>
</g>
<g>
</g>
<g>
</g>
<g>
</g>
</svg>
