<?xml version="1.0" encoding="iso-8859-1"?>
<!-- Generator: Adobe Illustrator 19.0.0, SVG Export Plug-In . SVG Version: 6.00 Build 0)  -->
<svg xmlns="http://www.w3.org/2000/svg" xmlns:xlink="http://www.w3.org/1999/xlink" version="1.1" id="Layer_1" x="0px" y="0px" viewBox="0 0 512 512" style="enable-background:new 0 0 512 512;" xml:space="preserve">
<g>
	<g>
		<path d="M467,30v392H301c-16.542,0-30,13.458-30,30h-30c0-16.542-13.458-30-30-30H45V30H0v452h196.021    c14.064,18.696,36.317,30,59.979,30s45.915-11.304,59.979-30H512V30H467z"/>
	</g>
</g>
<g>
	<g>
		<path d="M211,362H75v30h136c10.925,0,21.167,2.949,30,8.072V392C241,375.458,227.542,362,211,362z"/>
	</g>
</g>
<g>
	<g>
		<path d="M211,0H75v332h136c10.925,0,21.167,2.949,30,8.072V30C241,13.458,227.542,0,211,0z"/>
	</g>
</g>
<g>
	<g>
		<path d="M301,362c-16.542,0-30,13.458-30,30v8.052c8.83-5.119,19.08-8.052,30-8.052h136v-30H301z"/>
	</g>
</g>
<g>
	<g>
		<path d="M301,0c-16.542,0-30,13.458-30,30v310.072c8.833-5.123,19.075-8.072,30-8.072h136V0H301z"/>
	</g>
</g>
<g>
</g>
<g>
</g>
<g>
</g>
<g>
</g>
<g>
</g>
<g>
</g>
<g>
</g>
<g>
</g>
<g>
</g>
<g>
</g>
<g>
</g>
<g>
</g>
<g>
</g>
<g>
</g>
<g>
</g>
</svg>
