<?xml version="1.0" encoding="iso-8859-1"?>
<!-- Generator: Adobe Illustrator 19.0.0, SVG Export Plug-In . SVG Version: 6.00 Build 0)  -->
<svg xmlns="http://www.w3.org/2000/svg" xmlns:xlink="http://www.w3.org/1999/xlink" version="1.1" id="Layer_1" x="0px" y="0px" viewBox="0 0 512.001 512.001" style="enable-background:new 0 0 512.001 512.001;" xml:space="preserve">
<g>
	<g>
		<path d="M255.999,220.423c-19.617,0-35.577,15.96-35.577,35.577c0,19.617,15.961,35.577,35.577,35.577    c19.617,0,35.577-15.96,35.577-35.577S275.616,220.423,255.999,220.423z"/>
	</g>
</g>
<g>
	<g>
		<path d="M255.999,144.185c-61.655,0-111.815,50.16-111.815,111.815s50.16,111.815,111.815,111.815S367.814,317.655,367.814,256    S317.654,144.185,255.999,144.185z M255.999,322.072c-36.432,0-66.072-29.64-66.072-66.072s29.64-66.072,66.072-66.072    s66.072,29.64,66.072,66.072S292.431,322.072,255.999,322.072z"/>
	</g>
</g>
<g>
	<g>
		<path d="M145.031,167.014c-44.46,19.079-83.86,49.51-113.778,88.986c29.918,39.477,69.318,69.908,113.778,88.986    c-19.596-24.388-31.342-55.339-31.342-88.986S125.435,191.402,145.031,167.014z"/>
	</g>
</g>
<g>
	<g>
		<path d="M366.967,167.014c19.596,24.388,31.342,55.339,31.342,88.986s-11.746,64.598-31.342,88.986    c44.46-19.079,83.86-49.509,113.778-88.986C450.827,216.522,411.427,186.092,366.967,167.014z"/>
	</g>
</g>
<g>
	<g>
		<path d="M402.631,361.793c-44.823,23.89-95.527,36.517-146.632,36.517c-51.104,0-101.808-12.627-146.631-36.517    C66.041,338.7,28.226,305.189,0,264.878c27.717,57.915,64.755,106.203,107.237,139.748C152.534,440.394,203.975,459.3,256,459.3    s103.465-18.906,148.762-54.673c42.483-33.545,79.521-81.833,107.239-139.748C483.774,305.189,445.959,338.7,402.631,361.793z"/>
	</g>
</g>
<g>
	<g>
		<path d="M404.761,107.375c-45.297-35.768-96.737-54.673-148.763-54.673c-52.024,0-103.466,18.906-148.762,54.673    C64.755,140.919,27.717,189.207,0,247.122c28.226-40.311,66.041-73.822,109.368-96.915c44.823-23.89,95.527-36.517,146.631-36.517    c51.104,0,101.808,12.627,146.632,36.517C445.959,173.3,483.773,206.811,512,247.123    C484.283,189.208,447.244,140.92,404.761,107.375z"/>
	</g>
</g>
<g>
</g>
<g>
</g>
<g>
</g>
<g>
</g>
<g>
</g>
<g>
</g>
<g>
</g>
<g>
</g>
<g>
</g>
<g>
</g>
<g>
</g>
<g>
</g>
<g>
</g>
<g>
</g>
<g>
</g>
</svg>
