<?xml version="1.0" encoding="iso-8859-1"?>
<!-- Generator: Adobe Illustrator 19.0.0, SVG Export Plug-In . SVG Version: 6.00 Build 0)  -->
<svg xmlns="http://www.w3.org/2000/svg" xmlns:xlink="http://www.w3.org/1999/xlink" version="1.1" id="Layer_1" x="0px" y="0px" viewBox="0 0 512 512" style="enable-background:new 0 0 512 512;" xml:space="preserve">
<g>
	<g>
		<path d="M256,90c-44.828,0-82.102,32.946-88.892,75.895c32.432,3.582,62.573,17.94,86.172,41.342    c22.675,22.486,36.956,51.001,41.302,81.822l38.162-62.016C341.416,212.951,346,196.684,346,180C346,130.374,305.626,90,256,90z"/>
	</g>
</g>
<g>
	<g>
		<path d="M166,195.971v42.927c25.85,6.677,45,30.195,45,58.102c0,27.907-19.15,51.425-45,58.102V372c0,27.57,22.43,50,50,50    s50-22.43,50-50v-62.788C266,251.284,222.349,203.294,166,195.971z"/>
	</g>
</g>
<g>
	<g>
		<path d="M256,0C156.748,0,76,80.748,76,180v192c0,77.196,62.804,140,140,140s140-62.804,140-140v-11.021l53.392-86.765    C426.799,245.927,436,213.349,436,180C436,80.748,355.252,0,256,0z M358.293,242.767L296,343.997V372c0,44.112-35.888,80-80,80    s-80-35.888-80-80v-45h15c16.542,0,30-13.458,30-30s-13.458-30-30-30h-15v-87c0-66.168,53.832-120,120-120s120,53.832,120,120    C376,202.239,369.877,223.943,358.293,242.767z"/>
	</g>
</g>
<g>
</g>
<g>
</g>
<g>
</g>
<g>
</g>
<g>
</g>
<g>
</g>
<g>
</g>
<g>
</g>
<g>
</g>
<g>
</g>
<g>
</g>
<g>
</g>
<g>
</g>
<g>
</g>
<g>
</g>
</svg>
