<?xml version="1.0" encoding="iso-8859-1"?>
<!-- Generator: Adobe Illustrator 19.0.0, SVG Export Plug-In . SVG Version: 6.00 Build 0)  -->
<svg xmlns="http://www.w3.org/2000/svg" xmlns:xlink="http://www.w3.org/1999/xlink" version="1.1" id="Layer_1" x="0px" y="0px" viewBox="0 0 512 512" style="enable-background:new 0 0 512 512;" xml:space="preserve">
<g>
	<g>
		<path d="M450.864,0H61.136C28.243,0,1.483,26.76,1.483,59.652v268.436c0,32.892,26.76,59.652,59.652,59.652h14.913V512    l120.64-124.26h254.176c32.892,0,59.652-26.76,59.652-59.652V59.652C510.517,26.76,483.757,0,450.864,0z M242.081,298.262H90.962    v-29.826h151.119V298.262z M299.745,298.262h-29.826v-29.826h29.826V298.262z M359.397,298.262h-29.826v-29.826h29.826V298.262z     M419.05,298.262h-29.826v-29.826h29.826V298.262z M421.038,238.609H90.962v-29.826h330.076V238.609z M421.038,178.957H90.962    v-29.826h330.076V178.957z M421.038,119.305H90.962V89.479h330.076V119.305z"/>
	</g>
</g>
<g>
</g>
<g>
</g>
<g>
</g>
<g>
</g>
<g>
</g>
<g>
</g>
<g>
</g>
<g>
</g>
<g>
</g>
<g>
</g>
<g>
</g>
<g>
</g>
<g>
</g>
<g>
</g>
<g>
</g>
</svg>
