<?xml version="1.0" encoding="iso-8859-1"?>
<!-- Generator: Adobe Illustrator 19.0.0, SVG Export Plug-In . SVG Version: 6.00 Build 0)  -->
<svg xmlns="http://www.w3.org/2000/svg" xmlns:xlink="http://www.w3.org/1999/xlink" version="1.1" id="Layer_1" x="0px" y="0px" viewBox="0 0 512 512" style="enable-background:new 0 0 512 512;" xml:space="preserve">
<g>
	<g>
		<path d="M0,197v300h120V197H0z M60,452c-8.284,0-15-6.716-15-15s6.716-15,15-15s15,6.716,15,15S68.284,452,60,452z"/>
	</g>
</g>
<g>
	<g>
		<path d="M392.038,422c-9.742-9.536-15.804-22.818-15.804-37.496c0-14.681,6.065-27.967,15.812-37.503    c-9.747-9.537-15.812-22.822-15.812-37.504c0-14.679,6.063-27.962,15.807-37.498c-9.744-9.536-15.807-22.82-15.807-37.498    c0-14.68,6.064-27.965,15.81-37.502H315v45c0,94.201-72.741,171.721-165,179.37V497h242.041    c-9.744-9.536-15.807-22.82-15.807-37.498C376.234,444.823,382.294,431.536,392.038,422z"/>
	</g>
</g>
<g>
	<g>
		<path d="M489.5,212l-60.767,0.003c-12.406,0-22.499,10.093-22.499,22.498c0,12.405,10.093,22.499,22.498,22.499H489.5    c12.406,0,22.5-10.094,22.5-22.5S501.906,212,489.5,212z"/>
	</g>
</g>
<g>
	<g>
		<path d="M468.732,287h-40c-12.405,0-22.498,10.093-22.498,22.498c0,12.405,10.093,22.498,22.498,22.498l35,0.003h5    c12.406,0,22.5-10.094,22.5-22.5S481.139,287,468.732,287z"/>
	</g>
</g>
<g>
	<g>
		<path d="M448.732,362l-19.995,0.007c-12.41,0-22.503,10.093-22.503,22.498c0,12.361,10.021,22.422,22.365,22.495h0.133    c0.045,0,0.089,0.003,0.134,0.003L448.729,407c12.409,0,22.503-10.094,22.503-22.5S461.139,362,448.732,362z"/>
	</g>
</g>
<g>
	<g>
		<path d="M429.122,437.003h-0.39c-12.405,0-22.498,10.093-22.498,22.498c0,12.405,10.093,22.499,22.498,22.499    c12.406,0,22.5-10.094,22.5-22.5C451.232,447.224,441.35,437.211,429.122,437.003z"/>
	</g>
</g>
<g>
	<g>
		<path d="M316.715,15c-12.406,0-22.5,10.094-22.5,22.5c0,42.646-16.526,82.704-46.534,112.795    c-26.486,26.559-60.729,42.596-97.681,46.017v194.944c75.692-7.553,135-71.61,135-149.257v-65.64l3.721-4.244    c32.562-37.145,50.494-84.952,50.494-134.615C339.215,25.094,329.121,15,316.715,15z"/>
	</g>
</g>
<g>
</g>
<g>
</g>
<g>
</g>
<g>
</g>
<g>
</g>
<g>
</g>
<g>
</g>
<g>
</g>
<g>
</g>
<g>
</g>
<g>
</g>
<g>
</g>
<g>
</g>
<g>
</g>
<g>
</g>
</svg>
