<?xml version="1.0" encoding="iso-8859-1"?>
<!-- Generator: Adobe Illustrator 19.0.0, SVG Export Plug-In . SVG Version: 6.00 Build 0)  -->
<svg xmlns="http://www.w3.org/2000/svg" xmlns:xlink="http://www.w3.org/1999/xlink" version="1.1" id="Layer_1" x="0px" y="0px" viewBox="0 0 512 512" style="enable-background:new 0 0 512 512;" xml:space="preserve">
<g>
	<g>
		<rect x="338.75" width="105.5" height="103"/>
	</g>
</g>
<g>
	<g>
		<path d="M338.75,133c0,29.086,23.663,52.75,52.75,52.75c29.087,0,52.75-23.664,52.75-52.75H338.75z"/>
	</g>
</g>
<g>
	<g>
		<rect x="203.25" width="105.5" height="103"/>
	</g>
</g>
<g>
	<g>
		<rect x="67.75" width="105.5" height="103"/>
	</g>
</g>
<g>
	<g>
		<path d="M67.75,133c0,29.086,23.664,52.75,52.75,52.75s52.75-23.664,52.75-52.75H67.75z"/>
	</g>
</g>
<g>
	<g>
		<path d="M203.25,133c0,29.086,23.664,52.75,52.75,52.75c29.087,0,52.75-23.664,52.75-52.75H203.25z"/>
	</g>
</g>
<g>
	<g>
		<path d="M391.5,215.75c-27.994,0-52.768-13.986-67.75-35.324c-14.982,21.337-39.756,35.324-67.75,35.324    s-52.768-13.986-67.75-35.324c-14.982,21.338-39.756,35.324-67.75,35.324c-20.031,0-38.419-7.157-52.75-19.044V362h376.5V196.706    C429.919,208.593,411.531,215.75,391.5,215.75z"/>
	</g>
</g>
<g>
	<g>
		<path d="M67.75,392v120h376.5V392H67.75z M286,467h-60v-30h60V467z"/>
	</g>
</g>
<g>
</g>
<g>
</g>
<g>
</g>
<g>
</g>
<g>
</g>
<g>
</g>
<g>
</g>
<g>
</g>
<g>
</g>
<g>
</g>
<g>
</g>
<g>
</g>
<g>
</g>
<g>
</g>
<g>
</g>
</svg>
