<?xml version="1.0" encoding="iso-8859-1"?>
<!-- Generator: Adobe Illustrator 19.0.0, SVG Export Plug-In . SVG Version: 6.00 Build 0)  -->
<svg xmlns="http://www.w3.org/2000/svg" xmlns:xlink="http://www.w3.org/1999/xlink" version="1.1" id="Layer_1" x="0px" y="0px" viewBox="0 0 512 512" style="enable-background:new 0 0 512 512;" xml:space="preserve">
<g>
	<g>
		<rect y="332" width="512" height="60"/>
	</g>
</g>
<g>
	<g>
		<path d="M459.25,225.75c-27.994,0-52.768-13.986-67.75-35.324c-14.982,21.338-39.756,35.324-67.75,35.324    c-27.994,0-52.768-13.986-67.75-35.324c-14.982,21.338-39.756,35.324-67.75,35.324s-52.768-13.986-67.75-35.324    c-14.982,21.338-39.756,35.324-67.75,35.324c-20.031,0-38.419-7.157-52.75-19.044V302h512v-95.294    C497.669,218.593,479.281,225.75,459.25,225.75z"/>
	</g>
</g>
<g>
	<g>
		<path d="M135.5,143c0,29.086,23.664,52.75,52.75,52.75S241,172.086,241,143H135.5z"/>
	</g>
</g>
<g>
	<g>
		<path d="M271,143c0,29.086,23.664,52.75,52.75,52.75S376.5,172.086,376.5,143H271z"/>
	</g>
</g>
<g>
	<g>
		<path d="M0,143c0,29.086,23.664,52.75,52.75,52.75S105.5,172.086,105.5,143H0z"/>
	</g>
</g>
<g>
	<g>
		<rect x="271" y="10" width="105.5" height="103"/>
	</g>
</g>
<g>
	<g>
		<rect x="406.5" y="10" width="105.5" height="103"/>
	</g>
</g>
<g>
	<g>
		<rect y="10" width="105.5" height="103"/>
	</g>
</g>
<g>
	<g>
		<path d="M406.5,143c0,29.086,23.664,52.75,52.75,52.75S512,172.086,512,143H406.5z"/>
	</g>
</g>
<g>
	<g>
		<rect x="135.5" y="10" width="105.5" height="103"/>
	</g>
</g>
<g>
	<g>
		<path d="M362,472c-16.542,0-30-13.458-30-30v-20H180v20c0,16.542-13.458,30-30,30H75v30h362v-30H362z"/>
	</g>
</g>
<g>
</g>
<g>
</g>
<g>
</g>
<g>
</g>
<g>
</g>
<g>
</g>
<g>
</g>
<g>
</g>
<g>
</g>
<g>
</g>
<g>
</g>
<g>
</g>
<g>
</g>
<g>
</g>
<g>
</g>
</svg>
