<?xml version="1.0" encoding="iso-8859-1"?>
<!-- Generator: Adobe Illustrator 19.0.0, SVG Export Plug-In . SVG Version: 6.00 Build 0)  -->
<svg xmlns="http://www.w3.org/2000/svg" xmlns:xlink="http://www.w3.org/1999/xlink" version="1.1" id="Layer_1" x="0px" y="0px" viewBox="0 0 512 512" style="enable-background:new 0 0 512 512;" xml:space="preserve">
<g>
	<g>
		<path d="M406.5,133c0,29.086,23.664,52.75,52.75,52.75S512,162.086,512,133H406.5z"/>
	</g>
</g>
<g>
	<g>
		<rect x="406.5" width="105.5" height="103"/>
	</g>
</g>
<g>
	<g>
		<rect x="271" y="282" width="90.5" height="230"/>
	</g>
</g>
<g>
	<g>
		<path d="M459.25,215.75c-27.994,0-52.768-13.986-67.75-35.324c-14.982,21.338-39.756,35.324-67.75,35.324    c-27.994,0-52.768-13.986-67.75-35.324c-14.982,21.338-39.756,35.324-67.75,35.324s-52.768-13.986-67.75-35.324    c-14.982,21.338-39.756,35.324-67.75,35.324c-20.031,0-38.419-7.157-52.75-19.044V392h120.5V252h271v140H512V196.706    C497.669,208.593,479.281,215.75,459.25,215.75z"/>
	</g>
</g>
<g>
	<g>
		<rect y="422" width="120.5" height="90"/>
	</g>
</g>
<g>
	<g>
		<rect x="150.5" y="282" width="90.5" height="230"/>
	</g>
</g>
<g>
	<g>
		<path d="M271,133c0,29.086,23.664,52.75,52.75,52.75S376.5,162.086,376.5,133H271z"/>
	</g>
</g>
<g>
	<g>
		<rect x="391.5" y="422" width="120.5" height="90"/>
	</g>
</g>
<g>
	<g>
		<path d="M135.5,133c0,29.086,23.664,52.75,52.75,52.75S241,162.086,241,133H135.5z"/>
	</g>
</g>
<g>
	<g>
		<rect width="105.5" height="103"/>
	</g>
</g>
<g>
	<g>
		<rect x="135.5" width="105.5" height="103"/>
	</g>
</g>
<g>
	<g>
		<path d="M0,133c0,29.086,23.664,52.75,52.75,52.75S105.5,162.086,105.5,133H0z"/>
	</g>
</g>
<g>
	<g>
		<rect x="271" width="105.5" height="103"/>
	</g>
</g>
<g>
</g>
<g>
</g>
<g>
</g>
<g>
</g>
<g>
</g>
<g>
</g>
<g>
</g>
<g>
</g>
<g>
</g>
<g>
</g>
<g>
</g>
<g>
</g>
<g>
</g>
<g>
</g>
<g>
</g>
</svg>
